/* XPM */
static char *ee71689d1f4147d8db1c24920feef65aSRt2298ylCJcF5T7[] = {
/* columns rows colors chars-per-pixel */
"100 100 85 1 ",
"  c #000001",
". c #01000B",
"X c #08000F",
"o c #030013",
"O c #0B0015",
"+ c #060019",
"@ c #0D011C",
"# c #11051E",
"$ c #13091E",
"% c #100621",
"& c #140C22",
"* c #171126",
"= c #181227",
"- c #171228",
"; c #181328",
": c #1C1A2E",
"> c #1D1C32",
", c #201D2D",
"< c #221F30",
"1 c #1F2036",
"2 c #212135",
"3 c #22243B",
"4 c #27293E",
"5 c #2B2C3C",
"6 c #30303E",
"7 c #242740",
"8 c #252942",
"9 c #292D45",
"0 c #2A2E49",
"q c #2D3144",
"w c #2D334C",
"e c #313445",
"r c #33394E",
"t c #393D4E",
"y c #303755",
"u c #353C54",
"i c #353D5C",
"p c #3D4354",
"a c #3B435B",
"s c #374161",
"d c #394364",
"f c #414452",
"g c #454854",
"h c #4E515E",
"j c #555257",
"k c #5B585C",
"l c #414A63",
"z c #444F69",
"x c #4B5264",
"c c #46516B",
"v c #49546C",
"b c #51596C",
"n c #595D6A",
"m c #4B5773",
"M c #4D5975",
"N c #565F71",
"B c #5F6471",
"V c #54627F",
"C c #5D677B",
"Z c #676467",
"A c #6E6B6D",
"S c #636C7D",
"D c #546280",
"F c #5A6987",
"G c #636D81",
"H c #667186",
"J c #6F7582",
"K c #69758A",
"L c #777D8A",
"P c #6E7A90",
"I c #748197",
"U c #76839A",
"Y c #79879D",
"T c #7E8CA3",
"R c #888585",
"E c #918F8E",
"W c #878E9C",
"Q c #9B9897",
"! c #8D95A3",
"~ c #8999B2",
"^ c #A4A1A0",
"/ c #A6AFBF",
"( c #AAB4C3",
") c #BFC9DA",
"_ c #E8E4E0",
/* pixels */
";;;:  .:;;;;;;;;;;;=$&===;;;;;;;;;;;;;;;;;;;;;;;;;;;;;;;;;;;;;;;;;;===--;;;;;;;;;;;;;=;;;;;;;;;;;;=;",
";;= C!n ;;;;;;;;;;==8w:=;;;;;;;;;;;;;;;;;;;;;;;;;;;;;;;;;;;;;;;;;;;=:1:=;;;;;;;;;;;;;;;;=;;;;;;;;;;;",
";-= R)L =;;;;;;;;;*=is>%=;;;;;;;;;;;;;;;;;;;;;;;;;;;;;;;;;;;;;*;;;==>81&;;;;;;;;;;;;;;;;;;;;;;;;;;;;",
";--ogSfo-;;;;;;;===;13-=;;;;;;;;;;;;;;;;*;;;;;;;;;;;;;;;;;;;;;;;;--;;>:=;;;;-;;;;;;;;;;;;;;;;;;;;;;;",
";;;:   :;;;;;;;;;;;;&$=;;;;;;;;;;;;;;;;;;;;;;;;;;;;*;;;;;;;;;;;;;;;;=*;;;;;;;;;;;;;;;;;;;;;;;;;;;;=;",
";;;;;;;;;;;;;;;;;;;;;;;;;;;;;;;;;;;;;;;;;;;;;;;;;;;;;;;;;;;;;;;;;;;;;;;;;;;;;;;;;;;;;;;;;;;;;;;;;;;;",
";;;;;;;;;;;;=;;;;;;;;;;;;;;=XO;;;;;;;;;;;;;;;;;;;;;;;;;;;;;*$;;;:  .:;;;;;-;;;;;;;;;;=;;;;;;;;;;;;;;",
";;;;;;;;;;;-=;;;;;;;;;;-;;&:rw;=;;;;;;;=;;;;;;;;;;;;;;;;;=;17;**.hJf.;;;;;;;;;;;;;;;;;;;;;;;=;;;;;;;",
";;;;;;=;;;;;;;;;;;;;;;;;;;O2Vm=%;;;=;;;;;;;;;;;;;;;;;;;;;**ys>&& W)J ;;;;;;;=;;;;;;;;;=;;;;;;;;;;;;-",
";;;;;;=;;;;;;;;;;;;;;;;;;;&:aa=&;;;;;;;;;;;;;;;;;;;;;;;;;*=70:** BWh ;;;;;;;;;;;;;;;;;;;;;;;;;;;;;;;",
";;;;;;;;;;;;;;;;;;-;;;;;;;;=OO;;;;;;;;*;;;;;;;;;;;;;;;;;;;;&$*;;:  .:;;;;;;;;;;;;;=;;;;;;;;;;;;;;;;;",
";=;;;;;;;;;;;;;;;;;;;;;;;;;;=;;;;;;;;;;;;;;;;;;;;-=;;;;;;;;;;;;;--&=;;;;;;;;;;;;;;;;;;;;;;;;;=;;;;;;",
";;;;;;;;;;;;;=-;;;;;;;;;;;;;;;;;;;;=;;;;;;;;;;;;;;;;;;;;;;;;;;;;;;;;;;;;;;-;;;;;;;;;;;;;;;;;;;;;;;;;",
";;;;;;;;;;;;;;;;;;;;;;;;;;;;=;;;;;;;;;;;;;;;;;;*;;;;;;;;-;;;;;;;;;;;;;;;;;;;;;;;;;;;;=;;;;;;;;;;;;;;",
";;;;;;;;;;;;;;;;;;;;;;;;;;;;;;;;;;;;;;;;;;;;;;;;;;;;;;;;;;;;;;;;;;;;;;;;;;;;;;;;;;;;;;;;;-;;;;;;;;;;",
";;;;;;;;;;;;;;;;;;;;;;;;;;;;;;;;;;;;;;;;;;;;;;;;;;;;;;;;;;;;;;;;;;;;;;o.=;;;;;;;;;;;;;;;;;;;;;;;;;;;",
";;;;;;;;;;;;;;;;;;;;;;;-;;;;;;;;;;;;;;;;;;;;;;;;;;;;;;;;;;;;;;;;;;;;;;22;-;;;;;=;;;;;;;;;;;;;;;;;;;;",
";;;;;;;;;;;;;;;;;;==;;;;;;;=;;;;;;;;;;;;;=;;;;;;;;;@.&;;;;;;;;;;;;;;O&PY6 ;;;;;;;;;;;;;;;;;;;;;;;;;;",
";;-;;;;;;;;;;;;;;;;;;;;;;;;;;;;;;;;;;@o=;;;;;;;;==&qa2$;;;;;;;;;;;;;@&KI5.;;;;;;;-;;;;;;;;;;;;-;;;;;",
";;;;;;;;;;;;;;;;;;;;;;;;;;;;;;;;;;;;:&%-;;;;;;;;;=XzFr.;;;;;;;;;;;;;--::;-;;;;;;;;;;;;;;;;;;;;;-;;;;",
";. @:=-;-;;;;;;;;;;;;;;;;;;;;;;;;;;& CUp ;;;;;;;;*%ra4#;23;;;;;;;;;;;;oo-;;;;;-;;;;;;;;;;;;;*>3>*;=;",
"%tx5@=;;=;;;;;;;;;;;;;;;;;;;;;;;;;-& HTf ;;;;;;=;;;@.&;;33;*;;;;;;;;;;;;;;;;;;-=&;;;;;;;;;;;*>7<**;;",
" H~x ;;;;;;;;;;;;;;;;;;;;;;;;;;;;;-;=4q:=;;;;;;;;;;;;;;;;;;;;;;;;;;;;;;;;;;;;;;=&;;;;;;;;;;;;;;;;;;;",
"oxHt $=;;;;;;;;;;;;;;;;;;=;;;;;;;;;;;o &;;;;;;;;*;11=;;;;;;;;;;;;;;;;;;;;;;;;;&4y3&;;;;;;;-;;;;;;;;;",
";. @>2:=-;;;;;;;;;;;;;;;;;=;;;;;;;;;;;;;;;;;;;;;&:83;;;;;;;;;;;;;;;;;;;;;;;;-=$0d8&;;;;;;;;;;;;;;;;;",
";=&$9d8$-;;;;;;;=;;;;;;;;;;;=;;;;;;;;;;;;;;;=;;;;;:;;;;;;;;;;;;;;;;;;;;;-;;;-==:<:&;;;;;;;;;;;;;;;;;",
";;-&3y3&;;;;;;;;;;;;;;;;;;;;;;;;;;;;;;;;;;;;;;;;;;&;;;;;;;;;;;;;;;;;;;;;;;;;;;;&&&:;;;;;;;;;;;;;;;;;",
";;;;=&=;;;;;;;;;;=;;;;;;;;;;;;;;;;;;;;;;;;;;;;;;;;;;;;;;;;;;;;;;;;;;;;;;;;;;;;;;;;-;;;;;;;;;;;;;;;;;",
";;;;;==-;;;;;;;;;;;;;;;;;;;=;;;;;;;;;;;;==;;;;;;;;;;;;;;;;;;;;;;;;;-;;;;;;;;;;;;;;;;;;;;;;;;;;;;;;;;",
";;;;;;;;;;;;;;;;;;;;;;;;;;;;;;;;;;;;-;;;;;;;;;;;;;;;;;;;;;;;;;;;;;==;;;;;;;;;;;;;;;;;;;;;;;;;;;;;;;;",
";;;;;=;;;;;;;-;;;;;;;-;;;;;;;;;;;;;;;;;;;;;;;;;;;;;;;;;;;;;;;;;;;;;;;;;;;;;;;;;;;;;;;;;;;;;;;;;;;;;;",
";;;;;=;;;;;;;;;;;;;;;;;;;;;;;;;;;;;;;;;;;;;;;;;;;;;;;;;;;;;;;;;;;;;;;;;;;;;;;;;;;;;;;;;;;;;;;;;;;;;;",
";;;;;;;;;;;;;;;;;;;;;;;;;;;;;;;;;;;;;=-;;;;;;;;;;;;;;;;;;;;;-;;;;;;;;;;;;;;;;;;;;@#=;;;;;;;;;;;;;;;;",
";;;;;;;;;;;;;;;;;;;;;;;;;;;;;;;;;;;;;;;;;;;;;;;;;;;;;;;;;;;;;;;;;;;;;;;;;;;;;;;;:Oo;;;;;;;;;;;;;=;;;",
";;;;;;;;;;;;;;;;;;;;;;;;;;;;;;;;;;;;;;;;;;;;;;;;;;;;;;;;;;;;;;;;;;;;;;;;;;;;;;;o:KK2o;;;;;;&;;;;;;;;",
"=;;;;;;;;;;;;;;;;;;;;;;;;;;;;;;;;;;;;;;;;;;;;;;;;;;;;;;;&&;;;;;;;;;;;;;;;;-=;;;o:UY2.;;;;;;>;;;;;;;;",
";;;;;;;;;;;;;;;;;;;;;;;;;;;;;;;;;;;;;;;;;;;;;;;;;;;;;;;;  -;;;;;;;;;;;;;;;;;;;;=;ee;&;;;;&27>*;;;;;;",
";;;;;;;;;;;;;-;;;;;;;;;;;;;;;;;;;;;;;;;;;;;;;;;;;;;;;;@:SG2O;;;;;-;;;;;-;;;-;;;;;  *:;;;;*>3:*;;;;;;",
";;;;;;;;;;;;;;;;;;;;;;;;;;;;;;--;;;;;;;;;;;;;;;;;;;;;;.:YT3 ;;;;;=;;;;-=&-;;;;;;;;;;;;;;;;***;;;;;;;",
";;=;;;-;;;==;;;;;;;;;;;;;;;;;%.&;;;;;;;;;;;;;;;;;;;;;;%;pp:&;;;;;;;;;;:@ .:=;;;;;;;;;;;;;;;;;;;;;;;;",
";;;;;;;-;;;;;;;;;;;;;;;;;;;;@qg9#;;;;;;;;;;;;;;;;;;;;;;;  =;;;;;;;;;;;.tCxo;=&;;;;;;;;;;;;;;;;;;;;;;",
";;;;;;;;;;;;;;;;;;;;;;;;;;;-.aFa.;;;;;;;;;;;;;;;;;;;;;;;;;;-;;;;;;;;;= x~K &;:;;;;;;;;;;;;;;;;;;;;;;",
";;;;;;;;;;;;;;;;;;;;;;;;;;=;&4u4$;;;;;;;;;;;;;;;;;;;;;;;;;;=;;;;;;;;;;O9bpO%0i3$;;;;;;;;;;;;;;;;;;;;",
";;;;;;;;;;;;;;;;;;;;;;;;;;;;:$.$;;;;;;;;;;;;;;;;;;;;;;;;;;;:>;;;;;;;;;:@ .;&0i3$;;;;;;;;;;;;;;;;=;;;",
";;;;;;;;;;;;;;;;;;;;;;;;;;;;;;;;;;;;;;;;;;;;;;;;;;;;;;;;-==38:==;;;;;;;;;;;;;;;;;;;;;;;;;;;;;;;;;;;;",
";;;;;;;;;;;;;;;;;;;;;;;;;;;;=;;;;;;;;;;;;;;;;;;;;;;;;;;;;==>>;;-;;;;;;;;;;;;=&;;;;;;;;;;;;;;;;;;;;;;",
";;=;;;;;;;;;;;;;=++;;;;;;=;;;;;;;;;;;;;;;;;;;;;;;;;;;;;;;;;;&;;;;;;;;;;;;;;;;;;;;;;;;;;;;;;;;;;;;;;;",
";;;;;;;;;;;;;;-;=  ;;;;;;*=;;;;;;;;;;;;;;;;;;;;;;;;;;;;;;;;;;;;;;;;;;;;;;;;;;;;;;;;;;;;;;;;;;;;;;;;;",
";;;;;;;;;;;;;;; 5!W,.;==;11;;;;;;;;;;;;;=;;;;;;;;;;;;;;;;;;;;;;;;;;;;;;;=;;;;;;;;;;;;;;;;;;;;;;;-;;;",
";;;;;;;;;=;;;;; 5(/< ;==:71-=;;;;;*;;;;;;;;;;;;;;;;;--;;;;--;;;;;;;;;;;;;;;;;;;;;;;;;;;;;;;;;;;;;;;;",
";=;;;;;;;;;;;=;%:hh;&=;;-::;;;;;;;=;;;;;;;;;;;;;;;;&$=;;;=&=;;;;=;;;;;;;;;;;;;;;;;;;;;;;;;;;;;;;;;;;",
";;;;;;;;;;;;;==:=  *:=;;-=-;;;;;;;;;;;;;;;;;;;;=;;&4w1&;=:3:=;;;;;;;;;;;;;;;=;;;;;;;;;;;;;;;;;;;;;;;",
";;;;;;;;;;;;;;;;;;;;;;;;-;;;;;;-;;;;;;;;;;-;;;;;;;$wd3$-=>81===-;;;;;;;;;;;;;;;;;;;;;;;;;;;;;;;;;;;;",
";;;;;;;;;-;;;;;;;;;;;;;;;-;;;;;;;;;;;;;;;;;;;;;;;;=>3>=;;;>;==;;;;;;;;;;;;;;;;;;;;=;;;;;;;;;;;;;;;;;",
";;;;;=;;;;;;;;;;;;;;;*;;;;;;;;;;;;;;;;;;;;;;;;;;;;;*$=;;;===;;;;;;;;;;;;;;;;;;;;;;;;;;;;;;;;;;;$@;;;",
";;;;;;;;;;;;;;;;;;;;;;;;;;;;;;;;;;;;;;;;;;;;;;;;;;;;--;-;;;;;;;;;;;;;;;;;;;=;;;;;;;;;;;;;;;;;;;;:;;;",
";;;=;;;;;;;;;;;=;;;;;;;;;;;;*;;;;;;;;;;;;;;;;;;;;;;;;;;;;;;;;;=;;;;,   ,;;;;;=;;;;;;;;;;;;;;;%*cm2@;",
";;;;;;;;;;;;;;;;;;;;;;;;;;;;;;;;;;;;;;;;;;;;;;;;;;;;;;;;;;;;;;;;;;;.jRk.*;;;;;;;;;;;=;;;;;;;=&*vM2@;",
";;;;;;;;;;;;;;;;;;;;;;;;;;;;;;;;;;;;;;;;;;;;;;;;;;;=;;;;;;;;;;;;;;- E_Q &;;;;;;;;;;;;;;;;;;;=;;1:;;;",
";;;;;;;;;;;;;;;;;;;;;;;;;;;;;;;;;;;;;;;;;;;;=;;;;;;;;;;;;;;;;;;;;;; Z^A -;;;;;;;;;;;;;;;;;;;11;@$;;;",
";;;;=;;;;;;;;;;;;;;;;;;;;;;;;;;;;;;;;;;;;=;;;;;;;;;;;;;;;;;;;;;;;;;,   :;;;;;;;;;;;;;;;;;;=;73;==;;;",
";;;;;;;;;;;;;;;;;;;;;;;;;;;;;;;;;;;;*;;;;;;;;;;;;;;;=;;;;;;;;;;;;;;;-&=-**;;;;;;;;;;;;;;;;=;:;;;=;;;",
";;;;;;;;;;;;;;;;;;;;;;;;;;;;;;;;;;;;;;;;;;;;;;;;;-;;;;;;;;;;=;;;;;;;--*:1>*;;;==;;;;;;;;;;;;==;=;;;;",
"=;;;;;;;;;;=;;;;;*;;;;;;;;;;;;;;;;;;;;;;;;;;;;;;;;;;;;;;;;;;;;;;;;-;;;*>81*;;;;===;;;=;;;;;--=;;;;;;",
";;;;;;;;;;;;;;;;;;;;;;;;;**;;;;;;;;;;=;;;;;;;;;;;;;;;;;;;;;;;;;;;;;;;;;;::&;;;;%.&;;;;;;;;;;;;;;;;;;",
";;;;;;;;;;;;;;;;;;;;;;;*;1>*@$;;;;;;;;;;;;;;;$@;;;;;;;;;;;;;;;;;;;;;;;;;==-;-;%ql9#;;;;;;;;;;;;;;;;;",
";;;;;;;;;;;;;;;;;;;;;;=*:71->:;;;;;;;;;;;;;;;::;;;;;;;;;-;;;;;;;;;;;;;;;;;;;;;.aFp.=;;;;;;;;;;;;;;;;",
";;;;;;;=;;;;;=;;;;;;;;;=;>-1Mv=%;;;;*;;;;;;%=vM1@;;;;;;;==;;;;;;;;=  ;;;;;;;;;&5u5$=;;;;;;;;;;;;;;;=",
";;--=;;;;=;;;;;;=;;;;;;;=*@1mc=$;;;;;;;;;;;&*cM1@;;;;;;;;;;;;;;;-$>bx:%;;;;;;;;$.$;;;;;;;;;;;;;;;;;;",
";;;:;;;;;;;;;;;;;;;;;;;;;;;;;:;-;;;;;;;;;;;;;;;;;;;;;;;;;;;;;;;;- 3WT:.;-;;;;;;;;;;;;;;;;;;;;;;;;;;;",
";*;11;=;;;;;;;;;;;;;;;;;;;;=%$;;;;;;;;;;;;;;;&$*;;;;;;;;;;;;;;;;-@>Nb;%;;;;;;;;;;;;;;;;;;;;;;;;;;;;;",
";*:71;=;;;;;;;;;;;;-;;;;;;;;;;;;;;;;;;-;;;;;;;=;;;;;;&=;;;;;;;;;;;;  =;;;;;;;;;;;;;;;;;;;;;;;;;;;;;;",
";;;;;;;;;;;;;;;;;;;;;;;;;;;;;;;;;;;;;;;;;;;-;;;;;;;;=@$;;;;;;;;;;;;;=;;;;;;;;;;;;;;;;;;;;;;;;;;;;;;;",
";;;=*;;;;;;;;;;-;;;;;;;;=;;;;;;;;;;;;;;;;;;;;;;;;;;$>zl&&;;;;;;;;;;;;;;;;;;;;=;;;;;;;;;;;;;;;;;;;;;;",
";;;;;;;;;;;;;;;;;=;;;;;=;;;;=;;;;;;;;;;;;;;;;;;;;;;@3VM&$;;;;;;;;;;;;;;;;;;;;;;;;;;;;;;;;;;;;;;;=;;;",
";;;;;;;;;;;;;;;;;;;;;;;;;;;;;;;;;;;;;;=;;;;;;;;;;;==;54;;;;;;;;;;;;;;;;;;;;;;;;;;;;&&;;;;;;;;;;;;;;;",
";;;;;;;;;;;;;;;;;;;;;;;;;;;;;;;;;;;=;;;;;;;;=;;;-;;;;O@;;;;;;;;;;;;;;;;;;;;;;;;;;&<w3&;;;;;;#@;;;;;;",
";;;;;;;;;;;;;;;;;;;;;;;;;=;;;;;;;;;;;;;;;;;;====;;;;;;;;;;;;;;;;;;;;;;;;;;;;;;;;;$8dw$;;;;;;<<;;;;;;",
";;;;;-;;;;;;;;;;;;;;;;;;;;;;;;;;;;;;;;;;;;;;=OX=;;;;;;;;;;;;;;;;;;;;;;;;;;;;;;;;;->7<&;;;;#:Mm:%;;;;",
";;;;;;;;;;;;;;;;;;;;;;;;;;;;;;;;;;;;;;-;;;=*=ua>&;;;;;;;;;;;;;;;;;;;;;;;;;;-;;;;;;&$*;;;;;%:vv;%;;;;",
";;;;;;;;;;-;;;;;;;;;;;;;;;;;;;;;;;;;;;;;;;;$=MD2@;;;;;;;;;;;;;;-;=;;;;;;;;;;;;;;;;;;;;;;;;;;&*-;;;=;",
";;;;;-;;;;;;;;;-;;;;;;;;;;;;;;;;;;;;;;;;;;==-ru:&;;;;;;;;;;;;;;;;;;;;;;;;;;;;;=;;;;;;;;;;;;;&&;;;;;;",
";;;;;;;;;;;;;;---@O;;;;;;;;;;;;;;;;;;;;;;;-;;OX=;;;;;;;;;;;;;;;;;;;;;;;;;;;;;;;;;;;;;;;;;;;;;;;;;;;;",
";;;;;;;;;;;;;;-:-+O;;;;;;;;;;;;;;;;;;;=;;;;-;-=;;;;;;;;;;;-==;;;;;;;;;;;;;;;;;;;;;;;;;;-;;;;;;;;;;;;",
";;;;;;;;;;;;;;;o2KK:O;;;;;;;;;;;;;;;;;;;;;;;;;;;;;;;;;;;;*;>3:&;;;;;;;;=;;;;;;;;;;;;;;&-;;;;;;;;;;;;",
";;;;;;;;;;;;;;; 2TU:o;;;;;;;;;;;;;;=;==;;;;;;;;;;;;;;;;;;;;33:--;;;;;;;;-;;;;;;;;;;;;;::;;;;;;;-;;;;",
";;;;;;;;;;;;;;;*;ee;=;;-;;;;;;;;;;;;;;;;;;-;;;;;;;;;;;;;;;;::;;;;;;;;;;;;;;;;;;;;;;;&:71;;;;;;&;==;;",
";;;;;;;;;;;;;;;;-  ;;;;;;;;;;;;;;;;;;;;;;;;;;;;;;;;;;;;;;;;&&;;;;;;;;;;;;;;;;;;;;;-;;:3>=;;;&:3>=;;;",
";;;;;;;;;;;;;;;;;;;;;;;;;;;;;;;;;;;;;;;;;;;;;;;;;;;;;;;;;;;;;;;;;;;;;;;;;;;;;;;;;;;;;;==;;;;&>83===;",
";;;;;;;;;;;;;;;;=;;;;;;;;=;;;;;;;;;;;;;;;;;;;;;;;;;;;;;;;;;;;;;;;;;;;;;;;;;;;;;=;;;;;==;;;;;;;>;==;;",
";;;-;;;;;;;;;;;=;;;;;;;;;;;;;;;;;;;;;;;;;;;;==;;;;;;;;;;;;;;;;;;=;;;=;;;;;=;;;;;;=;;;;;;;;;;-=&$$=;;",
";;;;;;;;;;;=;;;;;;;;;;=;;;;;;=;;;;;;;;;;;;-===;;;;;;;;;;;;;;;;;;;;;;;;;;;;;;;;;;;;;;;;;;;;;;;==>>;;;",
";;;;;;;;;;;;;;=;;;;;;;;;;;=;;;;;;;;;;;;;;;;;;;;;;;;;;;;;;;;;;;;;;;;;;;;;;;;;;;;;;;;;;;;;;;;;;%=vM1@;",
";;;;;;;;;;;;;;;;;;;;;;;;;;;;;;;;;;;;;;;;;;;;;;;;;;;;;;;;-;;;;;;;;=;;;;;;;;;;;;=;;;;;;;;;;;;;;&&cm>@;",
";=;;;;;;;;;;;;;;;;;;;;;;;;;;;;;;;;;;;;;;;;;;;;;;;;;;;;;;;;;;;;;;;;;;;;;;;;;;;;;;;;;;;;;;;;;;;;;;:-;;",
"-=;;;;;;;;;;;;;;;;;;;;;;;;;;;;;;-=;;;;;;;;;;;;;;;;;;;;;;;;;;;;;;;;;;;;;;;;;;;;;;;;;;;;;;;;;;;;;&$*;;",
";;;;;;;;;;;;;;;;;;;;;;;;;%&-;;;;;;;;;;;;;;;;;;;;;;;;;;;;;;;;;;;;;;;;;;;;;;;;;;;;;=;;;;;;;;;=;;;;=;;;",
";;;;;;;;;;;;=-;;;;;;;;;;& o;;;;;;;;;;;;;;;;;;;;;;;;;;;;;;;;;;;;;;;;;;;;;;;-;;;;;;;;;;;;;;;;;;;;;;;;;",
";;;;;;;;;;;;;;;;;;;;;;;.qKN+&;;;;;;;;;;;;;;;;;;;;;;;;;;;;;;;;;;;;;;;;;;;;;;;;;;;;;;;;;;;;;;;;;;;;;;;",
";;;;;;;;;;;;;;;;;;;;;;; p~U @;;;;;;;;;;;;;;;;;;;;;;;;;;;;;;;;;;;;;;;;;=;;;;;;;;;;;;;;;;;;;;;;;;;;;;;"
};
