/* XPM */
static char *f45caf69c329448b89e71bcf4da5c3b6hLkuI0mTEp8O7DTt[] = {
/* columns rows colors chars-per-pixel */
"50 53 240 2 ",
"   c None",
".  c black",
"X  c #00000F",
"o  c #000010",
"O  c #00001C",
"+  c #1E000D",
"@  c #370000",
"#  c #2A190E",
"$  c #1C240F",
"%  c #3E250D",
"&  c #0C2233",
"*  c #302F31",
"=  c #4B2D0D",
"-  c #452907",
";  c #52310E",
":  c #5C370D",
">  c #552E0E",
",  c #653D0B",
"<  c #6C3500",
"1  c #7E3F09",
"2  c #671E0B",
"3  c #58590E",
"4  c #46470D",
"5  c #6D420C",
"6  c #794A0C",
"7  c #5D660E",
"8  c #67670B",
"9  c #6C7208",
"0  c #747609",
"q  c #687010",
"w  c #7F5736",
"e  c #000042",
"r  c #585953",
"t  c #57586C",
"y  c #5D6366",
"u  c #686F75",
"i  c #6C6E6D",
"p  c #834B03",
"a  c #845109",
"s  c #8E5709",
"d  c #995E06",
"f  c #945B09",
"g  c #975D06",
"h  c #975E14",
"j  c #9D6106",
"k  c #806F0C",
"l  c #AC6A05",
"z  c #A66606",
"x  c #B36F03",
"c  c #BC7503",
"v  c #B57005",
"b  c #B6770F",
"n  c #AE6F25",
"m  c #C57A01",
"M  c #CA7D01",
"N  c #C97D0A",
"B  c #D57B00",
"V  c #CD6B00",
"C  c #E87F00",
"Z  c #7D8106",
"A  c #828301",
"S  c #82840B",
"D  c #898B0C",
"F  c #8F940A",
"G  c #9CA105",
"H  c #A9AA0A",
"J  c #B6BB08",
"K  c #AFB400",
"L  c #82803F",
"P  c #AFAC3A",
"I  c #CD8103",
"U  c #D28300",
"Y  c #D98700",
"T  c #DC8901",
"R  c #DA880E",
"E  c #DA8913",
"W  c #E48E00",
"Q  c #EB8C00",
"!  c #E68907",
"~  c #FF8501",
"^  c #FE8B00",
"/  c #FF8D0B",
"(  c #F58700",
")  c #E59100",
"_  c #EC9300",
"`  c #E89607",
"'  c #F29700",
"]  c #FF9401",
"[  c #F69900",
"{  c #FE9D00",
"}  c #FE930C",
"|  c #FE9E09",
" . c #F1940E",
".. c #FD8E12",
"X. c #FC9515",
"o. c #E48B11",
"O. c #CBB507",
"+. c #FFA100",
"@. c #FFAA01",
"#. c #FCA209",
"$. c #FFB300",
"%. c #FFBB00",
"&. c #FAB707",
"*. c #FFA113",
"=. c #FFA019",
"-. c #FFB914",
";. c #ECA800",
":. c #D08528",
">. c #F39B34",
",. c #FFA52A",
"<. c #FFA53A",
"1. c #FFBB26",
"2. c #BAC60A",
"3. c #BFCD12",
"4. c #C3C504",
"5. c #C6CD05",
"6. c #C7CC08",
"7. c #CDD305",
"8. c #D7D806",
"9. c #C6CE15",
"0. c #D1D814",
"q. c #FFC300",
"w. c #FFCA00",
"e. c #F3C801",
"r. c #E2D905",
"t. c #FED500",
"y. c #FEDC00",
"u. c #F8D904",
"i. c #FFCB14",
"p. c #E6EA03",
"a. c #FFE401",
"s. c #FFEA00",
"d. c #FBE507",
"f. c #ECF603",
"g. c #F1F602",
"h. c #FFF400",
"j. c #F5FA02",
"k. c #FFFE00",
"l. c #F8FC0D",
"z. c #F5FC12",
"x. c #E4DE2E",
"c. c #FFFF34",
"v. c #FFEE22",
"b. c #828172",
"n. c #B5AF54",
"m. c #D18E4B",
"M. c #FF9E50",
"N. c #FFA643",
"B. c #FFA94C",
"V. c #FEAB5B",
"C. c #FEA854",
"Z. c #FFB545",
"A. c #D49A6A",
"S. c #FFAB68",
"D. c #FFB46D",
"F. c #FFB065",
"G. c #FFAE7C",
"H. c #FFB677",
"J. c #FCD551",
"K. c #FFFC5A",
"L. c #FFE64F",
"P. c #F7D26D",
"I. c #FFFD67",
"U. c #FAF878",
"Y. c #C6C559",
"T. c #677187",
"R. c #7D8C94",
"E. c #86878A",
"W. c #949596",
"Q. c #8893A3",
"!. c #9EA5A8",
"~. c #AFB2B2",
"^. c #DCB396",
"/. c #CEAC95",
"(. c #FFBA84",
"). c #FFBD8C",
"_. c #FABC93",
"`. c #E7B694",
"'. c #D4CA98",
"]. c #FFC38A",
"[. c #FED889",
"{. c #FFC395",
"}. c #FFC79B",
"|. c #FFFB86",
" X c #FFFF93",
".X c #FFEC86",
"XX c #C6C5BF",
"oX c #FFC9A3",
"OX c #FECEAC",
"+X c #FBC6A8",
"@X c #FFD4AD",
"#X c #E7C8B4",
"$X c #FCCEB3",
"%X c #FFD3B4",
"&X c #FDD4BB",
"*X c #FFDABC",
"=X c #FAD9B9",
"-X c #E8C4AC",
";X c #FFFEA4",
":X c #FFFFAB",
">X c #FFF2A9",
",X c #FFFDB4",
"<X c #FFFCBD",
"1X c #FFE7B0",
"2X c #B5BCC8",
"3X c #BAC5CD",
"4X c #C7C9CA",
"5X c #CFD0D4",
"6X c #E7CFC1",
"7X c #FFD5C3",
"8X c #FFDBC4",
"9X c #FFDCC9",
"0X c #F3D9C9",
"qX c #E9DBD3",
"wX c #FADFD3",
"eX c #ECD8CD",
"rX c #FFE2CD",
"tX c #FDE9C5",
"yX c #FCFAC9",
"uX c #FFE3D4",
"iX c #FFE4DA",
"pX c #FFE9DC",
"aX c #FBE7D6",
"sX c #FFFFD5",
"dX c #FFFFDC",
"fX c #FFF4D6",
"gX c #EFE4DD",
"hX c #D9E1E5",
"jX c #FEECE3",
"kX c #F9ECE8",
"lX c #FFF3E4",
"zX c #FFFDE5",
"xX c #FFF4EC",
"cX c #FAF9EC",
"vX c #F9EEF2",
"bX c #FFF4F3",
"nX c #FFFAF5",
"mX c #FFFEFE",
"MX c #F7F7FA",
"NX c #E7EBEE",
/* pixels */
"                                  o o o X X o X X X o o X X                                         ",
"                                  o X o X X X X X X o o X X                                         ",
"                                q Z D F D S S S S D D F A 0                                         ",
"                      o o o o $ F J 7.8.7.6.6.6.6.6.0.0.5.K Z . . . .                               ",
"                    o o o o o 4 H p.j.k.j.g.g.g.g.g.l.l.g.7.F . o X . .                             ",
"                    7 8 q 3 3 D O.d.k.k.k.k.k.k.k.k.k.k.k.x.n.i t t i y y                           ",
"                  9 G J 6.2.J 6.8.y.s.s.s.y.a.d.d.d.a.a.t.P.'.XX3X3X4X~.W.r                         ",
"              o o S 2.p.j.j.f.p.u.e.%.$.%.%.%.-.-.%.%.@.@.P.=XgXNXMXMXhX~.y .                       ",
"              X 3 H p.h.k.k.k.h.y.%.] ^ ] { ] { { ] ] ] C.+XpXmXmXmXmXcX5XW.* .                     ",
"            q D H 8.d.s.h.h.h.s.w.@.^ ~ / ^ ^ ^ ^ ] M.G.+X9XnXmXmXmXlXuX0X4X!.R.u                   ",
"        o $ F 2.p.d.u.w.q.w.w.q.%.+.{ } ../ ^ ~ ~ { (.&XjXnXmXmXmXrX}.).%XkXhX3XR.&                 ",
"      X o 7 2.p.k.h.w.+.] { +.+.+.+.+.{ | { { ] ] V.OXjXmXmXmXmXlXoX<.N.@XxXMXhX!.* .               ",
"      7 0 H 8.h.h.s.%.{ ~ ^ ^ ] ] } +.@.$.%.1.Z.D.oXuXmXmXmXnXjX9XoXH.(.=XlXbXwX~.h @ +             ",
"X X 0 H J r.u.t.t.q.$.{ ] ] { ] } ..{ @.w.y.L.[.*XiXbXmXmXbX9XoX}.%X9XuXrX8X%X`.A.n 1 1 -           ",
"X X S 4.p.h.d.q.@.{ +.{ { { { { } ..{ %.y.h.I.,XzXmXmXmXmXaX{.<.D.rXnXbXuX{.B.' ! N l p = o o       ",
"X X D 7.k.k.s.%.^ ^ ] +.{ { { +.+.+.%.i.v.K.;XsXmXmXmXMXkX8X).C.H.9XbXxXtXD.^ ( Q Y b h ; X X       ",
"o o D 7.k.k.s.%.] ^ { { | } } { $.q.y.L.|.,XsXnXmXmXvXeX#X-X$X=X*X9XuX*X{.B.] ( Q Y b h : o o       ",
"o o S 5.g.h.a.%.] ^ { { { ....+.q.y.h.U.<XzXmXmXmXMXeX^.m.^.qXbXlX8X{.F.<.,.{ [ W I v f ; X o       ",
"X X S 5.g.k.a.%.{ ] { { { { | %.t.h.K.:XzXmXmXmXmXkX#XA.:.^.gXmXxX%XB.^ ] { |  .W I x s ; X o       ",
"X X S 5.g.k.s.%.{ ] } | @.@.%.t.L.|.:XsXnXmXmXbXiX*X#X`.^.#XaXaX9X{.=.^ ] { |  .! U x s ; X o       ",
"X X S 5.j.k.d.%.{ } ..| @.w.a.h.|.yXdXmXmXmXnX9X{.H.+XaXkXaX7X}.H.V.*.{ { +.+.` ) U x s ; o o       ",
"X X S 5.g.k.s.%.] ^ ^ { %.y.h.K.:XzXmXmXmXmXjXoXN.N.OXxXMXjXoX<.] ] { +.{ +.{ ' ) U x s ; o o       ",
"X X S 5.g.k.d.%.{ ^ ^ ] 1.L.U.;XsXmXmXmXbXjX8XoXH.].&XkXjX0X(.] ^ ] { *.*.#.{ ' W U x s ; o o       ",
"X X S 5.g.k.d.-.{ ^ ~ ^ Z.[.<XdXmXmXmXvX7X}.}.%X9XaXeX#X-X`.V.[ ] { { | #.+.+.' ) I x s ; o o       ",
"X X S 6.g.k.d.-.{ ^ ~ ] D.*XxXmXmXmXmXuX).<.D.9XnXMXqX/.m.Y ' { +.+.{ { +.+.{ ' W I x s ; X o       ",
"X X S 6.f.k.s.%.} X.,.S.+XiXMXmXmXnXzXtX].V.(.9XnXvX#XA.V V Q { *.#.{ +.+.+.+.' ) U x s ; X o       ",
"X X S 9.z.k.a.@.] M.).&XiXnXmXmXnXyX:X>X1X*X7X9XrX&X^.m.V B Q { *.#.+.{ +.+.{ ' W U x s ; X o       ",
"X X S 9.z.k.a.@.] G.&XjXmXmXmXmXyX|.K. XsXnXkX7X].V.>.:.M Y _ { #.+.{ +.{ +.{ ' W U x s ; X o       ",
"o X A 5.f.k.a.%.V.+XjXmXmXmXmXzX,XI.c. XdXmXjX%XB.( Q B M R ' { +.{ +.{ +.+.+.' W U x s ; o o       ",
"o X A 5.g.h.L.[.$XwXMXmXmXbXwX*X1X;X;X<XfXiX7X).X.( C B N E  .{ +.+.{ +.+.+.{ ' W U x s ; X o       ",
"O o A 4.g.l. X<XjXMXmXmXnX9X(.H.@XfXzXfX*X{.H.C.*.[ W U I R _ { +.+.+.{ +.+.{ ' ) I x s ; o o       ",
"o o A O.g.I.,XzXmXmXmXmXjXoXN.N.@XxXmXjXoX,.] { +.{ _ U M Y _ { +.+.{ { +.+.{ ' W U x s : o o       ",
". . L Y.U.>XdXmXmXmXbXaX9X+X(.].*XzXzXtX].{ ^ ] { X.o.Y I Y _ { +.+.{ +.+.+.{ ' ) I x s ; X X       ",
". . i '.<XzXMXMXmXbX7X{.{.%X9XpXyX<X;X.XJ.+.] ] +.| ` U M U _ +.+.+.+.{ +.+.{ ' ) U x s ; X o       ",
". . b.4XNXmXmXmXmXiX].,.D.7XnXmXsX Xc.s.%.+.{ { #.[ ) U M Y _ { +.+.{ +.+.+.{ ' W I x s ; X o       ",
". . E.5XMXmXmXnXjX8X).F.).9XxXcX<XI.s.u.%.[ .. .{ ' ) T U W ' +.+.+.+.{ +.+.{ ' ) U x f ; X o       ",
". . E.5XMXmXnX9XOX+X%X8X7X8X7X*X[.J.t.q.;.W o.R W W W W _ _ [ { +.{ +.{ +.+.+.[ _ Y v g ; X X       ",
". . W.5XmXmXaX(.B.{.uXnXvX8X).C.<.-.$.;.) U M M M U W ' { { { +.{ +.{ +.+.+.+.{ _ Y v g : o o       ",
". . E.4XNXxX8XD.<.{.pXnXxX$XN.^ ^ ] }  .T I I m M U _ [ +.+.+.+.+.{ { { +.+.[ _ W M z a = X o       ",
". . u !.3XqX0XOXoX*XwXuX&X).X.^ ( ] ] X.! W T Y T W _ { +.+.+.+.+.+.+.+.+.{ _ T I l s 5 =           ",
"      i i ~.5XkXxXpX&X_.S.M...^ ] { { | [ ' ' ' ' ' [ { +.+.+.+.+.+.+.{ [ ' T m z 6 ; -             ",
"      . . y ~.NXmXlX}.,.] { +.#.#.{ { { { { +.+.+.+.+.+.{ +.{ { +.+.+.{ _ T m z 6 # o               ",
"        . & Q.5XNXtX[.q.q.q.w.i.-.#.{ { +.+.+.+.+.+.+.+.+.{ [ [ ' [ [ _ T M z a ; o                 ",
"            T.Q.~.'.J.s.h.h.s.a.t.%.{ { { +.+.+.+.+.+.+.+.{ _ _ ) _ _ W N z 6 ; %                   ",
"              e r P x.h.k.k.k.h.y.%.{ ] { +.+.+.+.+.+.+.{ ' W U I U Y M l 6 # o                     ",
"              . . Z 4.p.z.z.f.p.r.&.] ( [ [ [ [ [ [ { { [ W I v l c c l a = o                       ",
"                  9 G J 9.3.2.O.O.` _ Q _ _ _ _ _ _ _ ' _ U x f a s g a 5 %                         ",
"                    7 q q q 7 0 x I T W T U Y Y Y T T T Y c f , # = : = =                           ",
"                    o X X o o + 1 l m m c c c c m c m m c j 5 X o o o o                             ",
"                      X o o o X 2 s j z j j d j d d j z g a : o o o o                               ",
"                                > , , 5 5 5 , , , , 5 5 , ,                                         ",
"                                  X X X X X X X X X X o X X                                         ",
"                                  X X X X X X X X X o o X X                                         "
};
