/* XPM */
static char *result[] = {
/* columns rows colors chars-per-pixel */
"80 80 40 1 ",
"  c #010000",
". c #0A0505",
"X c #0E0807",
"o c #0F0909",
"O c #100907",
"+ c #130C0B",
"@ c #180F0E",
"# c #17100F",
"$ c #19100F",
"% c #1C1311",
"& c #211614",
"* c #231816",
"= c #261B19",
"- c #2A1E1C",
"; c #2C201E",
": c #30201F",
"> c #2F2220",
", c #342524",
"< c #382725",
"1 c #372826",
"2 c #382927",
"3 c #3B2C29",
"4 c #3F302D",
"5 c #412F2D",
"6 c #41302E",
"7 c #463532",
"8 c #4A3533",
"9 c #4B3936",
"0 c #4E3D39",
"q c #503A37",
"w c #513F3B",
"e c #53413D",
"r c #59423F",
"t c #5D4542",
"y c #5F4844",
"u c #614744",
"i c #624945",
"p c #664B48",
"a c #684D49",
"s c None",
/* pixels */
"ssssssssssssssssssssssssssssssssssssssssssssssssssssssssssssssssssssssssssssssss",
"ssssssssssssssssssssssssssssssssssssssssssssssssssssssssssssssssssssssssssssssss",
"ssssssssssssssssssssssssssssssssssssssssssssssssssssssssssssssssssssssssssssssss",
"ssssssssssssssssssssssssssssssssssssssssssssssssssssssssssssssssssssssssssssssss",
"ssssssssssssssssssssssssssssssssssssssssssssssssssssssssssssssssssssssssssssssss",
"sssssssssssssssssssssssss                    sssssssssssssssssssssssssssssssssss",
"sssssssssssssssssssssssss+@@@@@@+   . .......sssssssssssssssssssssssssssssssssss",
"ssssssssssssssssssssssss&58q8887,+  +&=--=-*% sss  sssssssssssssssssssssssssssss",
"sssssssssssssssssssssss ;quuyyyr6& +&;,21,1,-O      ssssssssssssssssssssssssssss",
"ssssssssssssssssssssss&:8riiyyprq2=%%-:,,,3653,,,<<,-sssssssssssssssssssssssssss",
"sssssssssssssssssssssX3qrreeeeeee93-X+&%$*29wweewwwq3@ sssssssssssssssssssssssss",
"ssssssssssssssssssss %9uireeee9eee91&%&&$=4eruiiiapu8@ sssssssssssssssssssssssss",
"sssssssssssssssssss +;9eteee9e9eee074343447eetetuuai8@ sssssssssssssssssssssssss",
"ssssssssssssssssss +-27eee0eeeeeeee00ew0000eeeeeqtiu8+ sssssssssssssssssssssssss",
"sssssssssssssssssX#=,27eeeee9eee0090009weeeee09ewwww5& sssssssssssssssssssssssss",
"sssssssssssssss .%;,,369e0e0eeee943444470eeee0eewq5<,,=+ sssssssssssssssssssssss",
"sssssssssssssss .-12<270eee9eeee42>,1,>37eeeee7ew8;+;,,&  ssssssssssssssssssssss",
"sssssssssssssss .-22<270eeeee794211,,,,344eeeeeew8;X=22:=$ s sssssssssssssssssss",
"sssssssssssssss .=,2,370eeeee9>%>,212111134eeeeee7;%;,22,&    ssssssssssssssssss",
"sssssssssssssss .=,2,270e9eee4;X*,221111>147eeeee7>+*:222;%&,:;sssssssssssssssss",
"sssssssssssssss .=22127eeeeee7>#-,22111,>34eeeeee7;.+&;21,=3qw3 ssssssssssssssss",
"sssssssssssssss .=,2,270eeeee7>%=,221111134ee9eee91%#$=:<<28tiq= sssssssssssssss",
"sssssssssssssss .=,2,370eeeee7>%-,221111>17eeeeee073;$+$-17wruwq3=ssssssssssssss",
"sssssssssssssss .=,2,270eeeee7>%-,221113>14eeee9e0e92% .&3qewwruq, sssssssssssss",
"sssssssssssssss .=<21270te0ee7>%=,31111244e0eeeeeeee72;;17ee0eypt<  ssssssssssss",
"sssssssssssssss  *,2,270e0eee7>%-2221,1347eee00ee9ee9777700e0eyiw: sssssssssssss",
"sssssssssssssss o-<2<270e00ee7>#=,,22<,4eeee00e0e9eeeeeeeee00etyw5. ssssssssssss",
"ssssssssssssss+&->,21270ee0te7>o%->221,37ee7ee0eeeeeeeeeeeee0eetwq5<@sssssssssss",
"sssssssssssss @-222,,27eee0ee4>o+%=,21,3eeeeeeeeeeeee0eeeeeee0eeeir6+ ssssssssss",
"ssssssssssss  %>222,12490eeee04>%#%->2377eee9e9ee9e0ee0999990e00rpi9% ssssssssss",
"ssssssssssss  %,2321122349tee0041$ o*3907eeeee9ee9e9ee0733479ee0eiu8@ ssssssssss",
"sssssssssssss %;222111,,49e0eee04-##-49teee9eeeeeeeeee73,,,47e0erut8@ ssssssssss",
"sssssssssssss %>131111,,39e00ete942247eee0ee0ee0e0e07432,,,2470eriu8+ ssssssssss",
"sssssssssssss $>111111,,49eee00ee000e0eee00ee00eeee04;*>22221460tiu8@ ssssssssss",
"sssssssssssss $>1311111,49eee0e0eeeee0ee0ee00ee0eee02$$;222,,147wit8@ ssssssssss",
"sssssssssssss %>111111,,49ee0e0eeeeeeeeeeeeee00e0ee04&%;22,2,114qwu8@ ssssssssss",
"sssssssssssss %>311111,,49t00e000eeeee00ee0e0ee0eee03&%,221111,>5tu8@ ssssssssss",
"sssssssssssss %;1311111149t0e0eee0eee7746790ee0e0ee04*%,221111,>8tiq$ ssssssssss",
"sssssssssssss %>111111,,400e0ee00eeee74,1460e0e0eee03*%;221111,,8ti9$ ssssssssss",
"sssssssssssss $>131111,,44t0ee00e000731>:170ee0e0ee04%%,221111,,8qq3@ ssssssssss",
"sssssssssssss $>3111111,40wewwt0ee73>>1,,17eee0e0eee6*%>222111112<,-ssssssssssss",
"sssssssssssss %>221111,149wwww00ee7;+=,3,379eee0eee03&&>22,31123-+ sssssssssssss",
"sssssssssssss %>1211111,3670w0w0ee7;o=,2>37ee0eee974;%&,32,,,3,,-. sssssssssssss",
"sssssssssssss %>311111111137wtt0ee7>#;,2,34eee0ee72%$%=,12222,3,-$ sssssssssssss",
"sssssssssssss %>22111111,>149000ee7>#;12,370eeeee7;  $&;,<11,,475&  ssssssssssss",
"sssssssssssss %>221211111122370tte7;o%12,170ee0ee7;  o$&=,11>39tq:  ssssssssssss",
"ssssssssssss  #>22111111111,,390ee9,*;>2,370ee0ee7,%%=&%%-<1<3wut< sssssssssssss",
"ssssssssssss  %,221111111111,3479ee44>=>479ee0eee074441&X#&,29tiw< sssssssssssss",
"ssssssssssss  %,22222,11111111134tt0e4#-49wwwwwwe0000e6;X +;7eyiw< sssssssssssss",
"sssssssssssss +=>222221111112,>1449tt4>10ttwwwwweeeeee04;;;39eyiw<  ssssssssssss",
"sssssssssssssss+%>121111112,1111344te4400tewwwew0eeeee0777790eyar<  ssssssssssss",
"sssssssssssssss  *,3211111221111,>34tt0000wwww0ee0e0eeeeeeeeeeryq, sssssssssssss",
"sssssssssssssss  =<22122222211121,3490tte0e0e0e0e00e0e0eeeeeere93=ssssssssssssss",
"sssssssssssssss .=,2122322221111111,440t0e0tww0e0ee00ee0eeeeur8* sssssssssssssss",
"sssssssssssssss .=222,,>>>,,122111,,,44e000ewwwwe0eee0ee00wruu8  sssssssssssssss",
"sssssssssssssss .=,23,>%%*->122231,133440et0wwww0ee00e0eewwrut8O sssssssssssssss",
"sssssssssssssss .=,13,-#oo%;,,11,1111,,49wwwwwwwe0e0weww0weeut8$ sssssssssssssss",
"sssssssssssssss .=,33,-o.+%;;>;>>,111,>3479weeeeeeewewwwe0eeit8$ sssssssssssssss",
"sssssssssssssss .=>33,;#o#%%%%%=>1311111,370eeeee0ee0ewwe00rut8+ sssssssssssssss",
"sssssssssssssss .;,32,-#o%%%%##%;,111111,179099999990wwe0eeeiu8$ sssssssssssssss",
"sssssssssssssss .;,43,;#+#%%%%#%-,3111311134444444379weewwwtaiq@ sssssssssssssss",
"sssssssssssssss .=>33>;#o%%&%%%%>11111,111<,,,1,<,>270www00wtr5@ sssssssssssssss",
"ssssssssssssssss.%=>,1-o.#%%%%#%-1111>--;;--;,1<,,,,3797777885<+ssssssssssssssss",
"sssssssssssssssss .%>1;#.o##%%#%-,331-##%*%%=,2221122222223<=+Osssssssssssssssss",
"ssssssssssssssssss @,1>*%+o+#%%-,,12<=o.+###*>,,2211,,,,,1<-. ssssssssssssssssss",
"sssssssssssssssss  %,22,-%o o%-1<<22<=+ o##%%*->,2112,,1122>#  sssssssssssssssss",
"ssssssssssssssssss $>222>*#o#*,222<2,;%oo+#%%#%-1222222212<>$ ssssssssssssssssss",
"sssssssssssssssssss+%-<22>--->1332222,>*%o#%#o%-132222221,-%+sssssssssssssssssss",
"ssssssssssssssssssss +-22211132222222<1,%#o++o#>122<22232-+ ssssssssssssssssssss",
"sssssssssssssssssssss %;,>,,>>>>>>>>>,,-%o.oo.+*-,>>>>>>-% sssssssssssssssssssss",
"ssssssssssssssssssssss+$%%%%%%%#%$$%%%%$o ..  .+%%%%%%%%%+ssssssssssssssssssssss",
"sssssssssssssssssssssss                                  sssssssssssssssssssssss",
"ssssssssssssssssssssssss  ssssssssssssssssssssssssssss  ssssssssssssssssssssssss",
"ssssssssssssssssssssssssssssssssssssssssssssssssssssssssssssssssssssssssssssssss",
"ssssssssssssssssssssssssssssssssssssssssssssssssssssssssssssssssssssssssssssssss",
"ssssssssssssssssssssssssssssssssssssssssssssssssssssssssssssssssssssssssssssssss",
"ssssssssssssssssssssssssssssssssssssssssssssssssssssssssssssssssssssssssssssssss",
"ssssssssssssssssssssssssssssssssssssssssssssssssssssssssssssssssssssssssssssssss",
"ssssssssssssssssssssssssssssssssssssssssssssssssssssssssssssssssssssssssssssssss",
"ssssssssssssssssssssssssssssssssssssssssssssssssssssssssssssssssssssssssssssssss"
};
