/* XPM */
static char *_611bc35139741eedfaef6574ce5cb44iw3mhRxud9EWC5NE[] = {
/* columns rows colors chars-per-pixel */
"50 50 196 2 ",
"   c None",
".  c #010101",
"X  c #020D01",
"o  c #080807",
"O  c #0A0A0B",
"+  c #060609",
"@  c #160F00",
"#  c #001203",
"$  c #0F1002",
"%  c #00140B",
"&  c #0B1509",
"*  c #151503",
"=  c #15160A",
"-  c #17190E",
";  c #1C130D",
":  c #0B0C15",
">  c #001514",
",  c #0F1812",
"<  c #00161B",
"1  c #031819",
"2  c #0B1919",
"3  c #0A1614",
"4  c #141413",
"5  c #181612",
"6  c #121814",
"7  c #191915",
"8  c #151A1A",
"9  c #1B1B1B",
"0  c #1B1719",
"q  c #281100",
"w  c #3C1400",
"e  c #221B1D",
"r  c #241719",
"t  c #3C1E1E",
"y  c #341B19",
"u  c #040527",
"i  c #011C26",
"p  c #061F29",
"a  c #1D1D23",
"s  c #1E1C29",
"d  c #171629",
"f  c #190A31",
"g  c #1D1D31",
"h  c #231C24",
"j  c #2B1B25",
"k  c #211E2D",
"l  c #2E1C28",
"z  c #331D2C",
"x  c #3B1E2B",
"c  c #211F31",
"v  c #002233",
"b  c #142436",
"n  c #1E2435",
"m  c #2C2125",
"M  c #22212B",
"N  c #2D2129",
"B  c #252528",
"V  c #3A2020",
"C  c #34232B",
"Z  c #232335",
"A  c #26253A",
"S  c #28273B",
"D  c #2A293D",
"F  c #2A2435",
"G  c #3B2333",
"H  c #3D2932",
"J  c #3E2538",
"K  c #372032",
"L  c #4A0500",
"P  c #451600",
"I  c #4B1E1D",
"U  c #531F1B",
"Y  c #6D1C0A",
"T  c #452C1B",
"R  c #54201F",
"E  c #53311E",
"W  c #49351E",
"Q  c #672019",
"!  c #74231E",
"~  c #421F23",
"^  c #442121",
"/  c #4F2121",
"(  c #552222",
")  c #5A2221",
"_  c #432A36",
"`  c #43263A",
"'  c #46293C",
"]  c #4A2C3D",
"[  c #4F313D",
"{  c #51313F",
"}  c #652423",
"|  c #692524",
" . c #6D2728",
".. c #722727",
"X. c #732828",
"o. c #7D292A",
"O. c #7C2725",
"+. c #632830",
"@. c #44443E",
"#. c #122C45",
"$. c #2B2A42",
"%. c #2F2E4A",
"&. c #282744",
"*. c #302F4C",
"=. c #332945",
"-. c #2F314B",
";. c #32314B",
":. c #2A395B",
">. c #223B5D",
",. c #353453",
"<. c #383655",
"1. c #383758",
"2. c #363A59",
"3. c #3B3A5C",
"4. c #343857",
"5. c #3E3D62",
"6. c #4E2D41",
"7. c #472B4F",
"8. c #522F43",
"9. c #543143",
"0. c #593545",
"q. c #5E364B",
"w. c #633A4D",
"e. c #60374C",
"r. c #673B51",
"t. c #6A3D52",
"y. c #6A3C5B",
"u. c #403F65",
"i. c #374168",
"p. c #454545",
"a. c #5A5A56",
"s. c #724258",
"d. c #724257",
"f. c #414067",
"g. c #44436B",
"h. c #464570",
"j. c #484772",
"k. c #4D4C7A",
"l. c #474A75",
"z. c #514F7F",
"x. c #50507F",
"c. c #646464",
"v. c #797978",
"b. c #AB021F",
"n. c #AB1521",
"m. c #BE1D22",
"M. c #832927",
"N. c #8A2A27",
"B. c #832A29",
"V. c #8A2B29",
"C. c #962E2E",
"Z. c #9B2F2F",
"A. c #9E302F",
"S. c #9C2F30",
"D. c #9D3132",
"F. c #AE2723",
"G. c #B92D27",
"H. c #A8302F",
"J. c #B63929",
"K. c #A43131",
"L. c #AC3233",
"P. c #B43434",
"I. c #BB3636",
"U. c #BE3738",
"Y. c #C7261A",
"T. c #C92D21",
"R. c #C53838",
"E. c #CA3939",
"W. c #C33737",
"Q. c #D33B3B",
"!. c #BD4C2F",
"~. c #DD492E",
"^. c #DF5F39",
"/. c #C75030",
"(. c #E9492B",
"). c #C96839",
"_. c #D76636",
"`. c #C47732",
"'. c #E8713F",
"]. c #DA6E40",
"[. c #D97743",
"{. c #E07D44",
"}. c #C6882F",
"|. c #E79836",
" X c #E69127",
".X c #E58B42",
"XX c #E78A47",
"oX c #E39B45",
"OX c #E8A147",
"+X c #545284",
"@X c #949494",
"#X c #9B9B9B",
"$X c #898989",
"%X c #A6A6A6",
"&X c #CECECE",
"*X c gray83",
/* pixels */
"                                                                                                    ",
"                                                                                                    ",
"                                                  9 7                                               ",
"                                                  7 7                                               ",
"                                                  M M                                               ",
"                                              = M $.S 7                                             ",
"                                              = a $.D 9                                             ",
"                                              * M $.Z *                                             ",
"          9                                   * a D A 5                                   9 9       ",
"          9               8 1 > > 1         9 M D ,.f.f.D         9 1 > > 1 9             9 9       ",
"          9             2 e ^ ( ( V 2       9 F ;.3.k.+X,..       9 t R ) ^ 9             9 9       ",
"          9             > t o.D.K.} >       9 Z %.3.k.+X;..       9 } C.K.o.1             7 9       ",
"        9 a 9             t B.L.L. .>       9 M *.1.l.+X;..       e X.K.P.V.2             a a 9     ",
"      9 a s a 7           t B.K.L.} >       9 Z %.3.k.+X;..       9 ..Z.L.M.1           9 s s 9     ",
"      7 a s a 9           t B.K.L.| >       9 Z *.3.z.+X;..       9 X.D.P.M.1           9 a s a     ",
"      9 a s a 9           t B.K.K.) >     = 7 h A %.3.u.D X       8  .D.L.B.1           9 s a 9     ",
"      9 a s a 7           t B.K.K.X.r   0 a g k s k s s k Z Z     y  .D.L.B.1           9 a s 9     ",
"      7 a s a 9         > t B.D.L.R.H.y i %.<.1.<.<.,.,.,.f.l.#.L B.V.D.L.B.2           9 s s 9     ",
"      9 a a 9 7           y o.K.P.W.K.C #.1.u.u.i.u.u.u.u.j.z.i.6.o.V.C.P.B.<           9 s a 9     ",
"      9 a s a 7         < V o.I.E.O.i $.3.5.5.5.u.u.u.5.5.3.u.z.l.N Q S.L.B.9           9 h s 9     ",
"      9 h s A Z 7     2 ( o.C.R.Q.! < $.3.u.u.4.Z A Z &.3.u.5.+Xl.< Y S.L.P.K.)       9 a c Z 9     ",
"      9 9 s S &.M 9   2  .S.K.I.P.| v -.3.5.1.g . . . O *.3.5.k.h.%.+.V.K.E.E.! >   0 a s %.;.a     ",
"          9 a Z D M & 1 } C.K.C.I Z ;.3.u.1.d . : O o + O &.5.u.h.+X1.P M.W.E.| > 9 a k &.3.3.M     ",
"          9 a Z $.<.;.i Q C.P.M.< b ,.u.g.,.. v.#Xp.. O . A u.3.h.+X:.q o.I.E.} > h k %.3.<.$.B     ",
"          9 a s A 3.1.p Q C.P.V.e b ;.5.u.&.o %X&Xc.. 4 . c 1.3.h.+X:.w B.I.R.} 1 k D <.3.D o       ",
"            9 a c Z n i Q C.L.V.9 b <.5.%.. . %X&Xc.. 4 o : d ,.h.+X:.w B.U.R.} > M 3.3.F           ",
"            h h a 0 , 1 } C.L.V.8 b ,.5.u p.$X#X@Xp.. O O . + %.j.+X:.w o.W.R.| % h -.%.r ;         ",
"          9 l l 9 0 8 1 } C.L.V.9 b ,.5.. v.&X#X. . O o O . : ;.j.+X:.w B.I.W.} < 0 7 e l m 8       ",
"          9 l z j l j < } C.L.N.8 b <.5.. v.*X#X. 4 O o O . : %.j.+X:.w M.L.L.) i j j j l h 8       ",
"          9 C G K K h < } S.P.N.9 b <.5.u a.%Xv.. + O o O . : ;.h.+X:.P M.L.K.U < z x x G j 7       ",
"          9 G ' ` G j < } C.L.N.8 b <.5.S O B 9 o o + o O . : %.j.+X:.w M.L.K.U < z ` 6.' C 6       ",
"            j G ` K j j ~ ) } U a n ,.5.S . . . . . . . . . + %.h.+X1.q I } } x s z J ` N h         ",
"            # B ' ` z z a < < < 9 S 4.i.%.k A Z Z n c Z Z n Z ,.h.+X5.X > < < j z K ` G 8           ",
"            , N ` ' ` z j j l j 9 S ,.5.u.3.3.5.5.5.5.5.5.5.5.3.h.+X3.@ j z l j K ' 6.J 9           ",
"            , N ` ' ' K 8.e.G 4   a $.,.<.<.<.<.1.<.4.4.<.<.<.,.3.3.;.  e { e.` K ' 6.G 9           ",
"            , N ' ' ' 6.e.w.C     * M S A S A S A A A A A A A S M $     % { r.0.6.` ` G 9           ",
"            , N ' ` 8.t.0.m           a a a 9 a a 9 a a 9 a a B 9         9 H w.q.' ' H h           ",
"            , N ` G 6.d.0.X               6 7 9 h r r 5 5 4 - =             m t.r.J ` J 9           ",
"            6 N ' ' 8.r.{ ,                 9 N z z G G j ,                 C w.r.6.' J 9           ",
"            , m ` q.w._ h                   9 K ' ` q.y.` #                   m 9.e.9.G e           ",
"            7 h J t.d.m                       d f f =.7.F                     X 8.s.9.F 9           ",
"            , N ' w.w.C                       ( W T R T                       % { r.0.K e           ",
"            # H w.0.G                       G.`.}.}.`.`.!.                      m _ q.0.e           ",
"            X [ y.{ .                       G.XXOX X|.XX^.b.                      e d.w.h           ",
"            # _ d.{ %                       J._.XX X|.oX).b.                      m d.w.e           ",
"              C _ H 6                       T.'.XX.XoXOX_.b.                        H _ 9           ",
"                # 2 9                       Y._.[.[..X.X/.                          # 3 9           ",
"                                              J./.!.~.(.                                            ",
"                                                n.F.m.                                              ",
"                                                  J.J.                                              "
};
