/* XPM */
static char *result[] = {
/* columns rows colors chars-per-pixel */
"50 50 196 2 ",
"   c #010101",
".  c #020D01",
"X  c #080807",
"o  c #0A0A0B",
"O  c #060609",
"+  c #160F00",
"@  c #001203",
"#  c #0F1002",
"$  c #00140B",
"%  c #0B1509",
"&  c #151503",
"*  c #15160A",
"=  c #17190E",
"-  c #1C130D",
";  c #0B0C15",
":  c #001514",
">  c #0F1812",
",  c #00161B",
"<  c #031819",
"1  c #0B1919",
"2  c #0A1614",
"3  c #141413",
"4  c #181612",
"5  c #121814",
"6  c #191915",
"7  c #151A1A",
"8  c #1B1B1B",
"9  c #1B1719",
"0  c #281100",
"q  c #3C1400",
"w  c #221B1D",
"e  c #241719",
"r  c #3C1E1E",
"t  c #341B19",
"y  c #040527",
"u  c #011C26",
"i  c #061F29",
"p  c #1D1D23",
"a  c #1E1C29",
"s  c #171629",
"d  c #190A31",
"f  c #1D1D31",
"g  c #231C24",
"h  c #2B1B25",
"j  c #211E2D",
"k  c #2E1C28",
"l  c #331D2C",
"z  c #3B1E2B",
"x  c #211F31",
"c  c #002233",
"v  c #142436",
"b  c #1E2435",
"n  c #2C2125",
"m  c #22212B",
"M  c #2D2129",
"N  c #252528",
"B  c #3A2020",
"V  c #34232B",
"C  c #232335",
"Z  c #26253A",
"A  c #28273B",
"S  c #2A293D",
"D  c #2A2435",
"F  c #3B2333",
"G  c #3D2932",
"H  c #3E2538",
"J  c #372032",
"K  c #4A0500",
"L  c #451600",
"P  c #4B1E1D",
"I  c #531F1B",
"U  c #6D1C0A",
"Y  c #452C1B",
"T  c #54201F",
"R  c #53311E",
"E  c #49351E",
"W  c #672019",
"Q  c #74231E",
"!  c #421F23",
"~  c #442121",
"^  c #4F2121",
"/  c #552222",
"(  c #5A2221",
")  c #432A36",
"_  c #43263A",
"`  c #46293C",
"'  c #4A2C3D",
"]  c #4F313D",
"[  c #51313F",
"{  c #652423",
"}  c #692524",
"|  c #6D2728",
" . c #722727",
".. c #732828",
"X. c #7D292A",
"o. c #7C2725",
"O. c #632830",
"+. c #44443E",
"@. c #122C45",
"#. c #2B2A42",
"$. c #2F2E4A",
"%. c #282744",
"&. c #302F4C",
"*. c #332945",
"=. c #2F314B",
"-. c #32314B",
";. c #2A395B",
":. c #223B5D",
">. c #353453",
",. c #383655",
"<. c #383758",
"1. c #363A59",
"2. c #3B3A5C",
"3. c #343857",
"4. c #3E3D62",
"5. c #4E2D41",
"6. c #472B4F",
"7. c #522F43",
"8. c #543143",
"9. c #593545",
"0. c #5E364B",
"q. c #633A4D",
"w. c #60374C",
"e. c #673B51",
"r. c #6A3D52",
"t. c #6A3C5B",
"y. c #403F65",
"u. c #374168",
"i. c #454545",
"p. c #5A5A56",
"a. c #724258",
"s. c #724257",
"d. c #414067",
"f. c #44436B",
"g. c #464570",
"h. c #484772",
"j. c #4D4C7A",
"k. c #474A75",
"l. c #514F7F",
"z. c #50507F",
"x. c #646464",
"c. c #797978",
"v. c #AB021F",
"b. c #AB1521",
"n. c #BE1D22",
"m. c #832927",
"M. c #8A2A27",
"N. c #832A29",
"B. c #8A2B29",
"V. c #962E2E",
"C. c #9B2F2F",
"Z. c #9E302F",
"A. c #9C2F30",
"S. c #9D3132",
"D. c #AE2723",
"F. c #B92D27",
"G. c #A8302F",
"H. c #B63929",
"J. c #A43131",
"K. c #AC3233",
"L. c #B43434",
"P. c #BB3636",
"I. c #BE3738",
"U. c #C7261A",
"Y. c #C92D21",
"T. c #C53838",
"R. c #CA3939",
"E. c #C33737",
"W. c #D33B3B",
"Q. c #BD4C2F",
"!. c #DD492E",
"~. c #DF5F39",
"^. c #C75030",
"/. c #E9492B",
"(. c #C96839",
"). c #D76636",
"_. c #C47732",
"`. c #E8713F",
"'. c #DA6E40",
"]. c #D97743",
"[. c #E07D44",
"{. c #C6882F",
"}. c #E79836",
"|. c #E69127",
" X c #E58B42",
".X c #E78A47",
"XX c #E39B45",
"oX c #E8A147",
"OX c #545284",
"+X c #949494",
"@X c #9B9B9B",
"#X c #898989",
"$X c #A6A6A6",
"%X c #CECECE",
"&X c gray83",
"*X c None",
/* pixels */
"*X*X*X*X*X*X*X*X*X*X*X*X*X*X*X*X*X*X*X*X*X*X*X*X*X*X*X*X*X*X*X*X*X*X*X*X*X*X*X*X*X*X*X*X*X*X*X*X*X*X",
"*X*X*X*X*X*X*X*X*X*X*X*X*X*X*X*X*X*X*X*X*X*X*X*X*X*X*X*X*X*X*X*X*X*X*X*X*X*X*X*X*X*X*X*X*X*X*X*X*X*X",
"*X*X*X*X*X*X*X*X*X*X*X*X8 8 8 8 8 8 8 8 8 a N p *X*X*X*X*X*X*X*X*X*X*X*X*X*X*X*X*X*X*X*X*X*X*X*X*X*X",
"*X*X*X*X*X*X*X*X8 8 8 6 p a a a a a a a C -.2.#.X *X*X7 8 7 5 *X*X*X*X*X*X*X*X*X*X*X*X*X*X*X*X*X*X*X",
"*X*X*X*X*X*X*X*X8 8 8 8 8 m a a a a a g C $.2.2.S *X- n g h V w *X*X*X*X*X*X*X*X*X*X*X*X*X*X*X*X*X*X",
"*X*X*X*X*X*X*X*X*X*X*X*X*X8 8 8 8 8 8 8 p a A 2.2.C e l k F ` M 7 8 8 8 w 8 p 8 w p w g p p 8 *X*X*X",
"*X*X*X*X*X*X*X*X*X*X*X*X*X*X*X*X*X*X*X*X8 a a #.1.2.*.w h F ` _ H H H F F H F F V H 8.e.q.) > *X*X*X",
"*X*X*X*X*X*X*X*X*X*X*X*X*X*X*X*X*X*X*X*X*X8 p j S 2.$.4 h F H _ H 5.' ` ` _ ' 8.8.9.q.e.q.) @ *X*X*X",
"*X*X*X*X*X*X*X*X*X*X*X*X*X*X*X*X*X*X*X*X*X*X9 g m m g 9 k l l l J _ ` _ _ H ' q.s.r.) w n *X*X*X*X*X",
"*X*X*X*X*X*X*X*X*X*X*X*X*X*X*X*X*X*X*X*X*X: : , , : : : , u , p z J F 5.w.e.q.[ 8.' n *X*X*X*X*X*X*X",
"*X*X*X*X*X*X*X*X*X*X*X*X*X*X*X*X*X*X*X*X( ..} { } } { W ( I I z g k _ 9.e.s.0.M . $ *X*X*X*X*X*X*X*X",
"*X*X*X*X*X*X*X*X*X8 7 < 2 < < < < 1 : 9 J.W.R.T.R.T.R.E.G.J.J.{ , k 0.e.F h V *X*X*X*X*X*X*X*X*X*X*X",
"*X*X*X*X*X*X*X*X*X< ~ N.B.N.B.B.N.N.N.N.P.R.E.I.I.P.I.P.K.K.J.{ , l ' [ 8 *X*X*X*X*X*X*X*X*X*X*X*X*X",
"*X*X*X*X*X*X*X*X*X: ( J.L.K.K.K.L.K.K.L.G.S.m.o.N.N.N.N.m.B.m.P : h w $ *X*X*X*X*X*X*X*X*X*X*X*X*X*X",
"*X*X*X*X*X*X*X*X*X: ^ V.J.A.A.A.S.V.V.S.S.B.L 0 q q q q q q L 0 # & *X*X*X*X*X*X*X*X*X*X*X*X*X*X*X*X",
"*X*X*X*X*X*X*X*X*X< B |  .|  .| ..B.M.W U O.<.:.;.;.;.;.;.;.;.1.2.2.=.*X*X*X*X*X*X*X*X*X*X*X*X*X*X*X",
"*X*X*X*X*X*X*X*X*X8 8 8 w 8 8 7 t N.X.m , $.OXOXOXOXOXOXOXOXOXOXOXOX4.X *X*X*X*X*X*X*X*X*X*X*X*X*X*X",
"*X*X*X*X*X*X*X*X*X*X*X*X*X*X*X*X*XK 7.h.k.h.f.g.g.h.h.h.h.h.h.g.g.g.<.C 8 *X*X*X*X*X*X*X*X*X*X*X*X*X",
"*X*X*X*X*X*X*X*X*X*X*X*X*X*X*X*X*X@.u.l.OXj.4.4.4.>.$.=.&.&.&.$.>.2.>.S m * *X*X*X*X*X*X*X*X*X*X*X*X",
"*X*X*X*X*X*X*X*X*X*X*X*X*X*X*X*XC h.OXy.4.4.4.4.<.s O ; ; ; ; O Z 4.>.A p = *X*X*X*X*X*X*X*X*X*X*X*X",
"*X*X*X*X*X*X*X*X*X*X            m f.g.4.4.2.%.Z C o             f 4.>.A p 4 5 @ *X*X*Xv.v.v.*X*X*X*X",
"*X*X*X*X*X*X*X*X*X#.>.-.-.-.-.S a >.4.4.4.$.o     O o o o o o   b 4.<.Z 8 4 h ` C *X^.~.).).(.*X*X*X",
"*X*X*X*X*X6 8 & 6 d.OXOXz.OXOXd.a >.f.4.%.o O o 3 3 ; O X X O   C 4.3.A p 4 F t.6.Y (..XXXXX X/.*X*X",
"*X*X8 6 N A S C D d.j.j.j.j.j.2.a >.f.4.C   O         * o o O   Z 2.,.Z 8 8 J 0.*.Y _.}.}.XX X!.n.H.",
"*X*X8 6 N #.#.#.#.>.2.2.2.2.2.&.a <.f.4.Z   o i.x.x.G . 7 O O   f 4.<.Z p w V _ d E {.|.|. X].H.D.H.",
"*X*X*X*X*Xa m g p S =.$.$.$.=.Z f <.y.4.Z   3 @X%X%X+X      O   C 4.<.Z p e l ` d R {.XX X.X[.^.b.*X",
"*X*X*X*X*X* * & & m D C C C C g x <.y.4.>.s   c.$X$X$X@X@Xc.8   Z 2.3.Z 8 8 h F s R _.[.'.[.).H.*X*X",
"*X*X*X*X*X*X*X*X*X8 8 8 6 6 8 7 j >.4.4.y.1.s       #X%X&X$XN   Z 2.,.Z p 6 8 8 *X*XF.F.F.Y.U.*X*X*X",
"*X*X*X*X*X*X*X*X*X*X*X*X*X*X*X* j *.<.u.y.y.<.>.%.  ] c.c.p.#   j 2.3.S p 4 *X*X*X*X*X*X*X*X*X*X*X*X",
"*X*X*X*X*X*X*X*X*X*X*X*X*X*X*X*X7 u @.<.<.2.y.f.u.$.y     y Z Z =.4.>.S p *X*X*X*X*X*X*X*X*X*X*X*X*X",
"*X*X*X*X*X*X*X*X*X*X*X*X*X*X*X*X*Xt V #.#.$.2.y.2.4.4.y.y.4.4.4.4.4.,.S p *X*X*X*X*X*X*X*X*X*X*X*X*X",
"*X*X*X*X*X*X*X*X*X*X1 , : : : $ e J.J.u , c -.,.>.,.>.,.,.,.>.>.,.>.#.p *X*X*X*X*X*X*X*X*X*X*X*X*X*X",
"*X*X*X*X*X*X*X*X*X< z { } } } (  .E.I.o.Q | D v v v v v v v v b A Z m & *X*X*X*X*X*X*X*X*X*X*X*X*X*X",
"*X*X*X*X*X*X*X*X*X: / J.K.G.G.K.K.K.L.R.W.L.! : w 8 8 7 9 9 s 7 8 8 *X*X*X*X*X*X*X*X*X*X*X*X*X*X*X*X",
"*X*X*X*X*X*X*X*X*X: / A.K.J.J.K.J.S.J.L.E.P.M.m.B.B.B.M.B.B.B.I : g 6 *X*X*X*X*X*X*X*X*X*X*X*X*X*X*X",
"*X*X*X*X*X*X*X*X*X< Y ..N.X.N.X.N.X.X.X.V.G.L.K.L.K.K.K.K.L.K.} , l G V *X*X*X*X*X*X*X*X*X*X*X*X*X*X",
"*X*X*X*X*X*X*X*X*X7 w r r r r r r r t r N.V.V.V.V.V.V.V.V.S.V./ , k w.w.h @ 2 *X*X*X*X*X*X*X*X*X*X*X",
"*X*X*X*X*X*X*X*X*X*X1 : *X*X*X*X*X< *X< / | | W W { } } { } { ! s k 7.w.9.9.[ h *X*X*X*X*X*X*X*X*X*X",
"*X*X*X*X*X*X*X*X*X*X*X*X*X*X*X*X*X*X*X*X1 1 < u i < < < < < < g l l J ' r.r.r.) n V *X*X*X*X*X*X*X*X",
"*X*X*X*X*X*X*X*X*X*X*X*X*X*X*X*X*X*X*X*X*X*X% =.3.b 2 7 p g g k l ) _ _ [ 7.8.q.s.q.V   $ 5 8 *X*X*X",
"*X*X*X*X*X*X*X*X*X*X*X*X*X*X*X*X*X*X*X*X*X6 C >.<.Z 6 8 k l F F H ` ' ` _ H ` 0.e.q.9.[ 8.G > *X*X*X",
"*X*X*X*X*X*X*X*X*X*X*X*X*X*X*X*X*X*X*X*X6 m #.#.%.a 8 w h F _ _ ` ` _ ` ` _ ` _ F ` q.s.s.) @ *X*X*X",
"*X*X*X*X*X*X*X*X*X*X*X*X*X6 8 8 6 8 6 6 Z S C a j p g k k F 5.F h M M M k M M n N M G ' ) V *X*X*X*X",
"*X*X*X*X*X*X*X*X*X*X*X*X8 p p p p g 8 p Z A a p p 7 g l h l F n @ 2 > > > > > 5 7 * @ . @ *X*X*X*X*X",
"*X*X*X*X*X*X*X*X8 8 8 8 p a a a a a a a j a 8 8 8 *X*X8 8 8 8 *X*X*X*X*X*X*X*X*X*X*X*X*X*X*X*X*X*X*X",
"*X*X*X*X*X*X*X*X*X*X*X*X8 g p a p p p p p 8 *X*X*X*X*X*X*X*X*X*X*X*X*X*X*X*X*X*X*X*X*X*X*X*X*X*X*X*X",
"*X*X*X*X*X*X*X*X*X*X*X*X*X8 8 6 8 6 6 8 8 8 *X*X*X*X*X*X*X*X*X*X*X*X*X*X*X*X*X*X*X*X*X*X*X*X*X*X*X*X",
"*X*X*X*X*X*X*X*X*X*X*X*X*X*X*X*X*X*X*X*X*X*X*X*X*X*X*X*X*X*X*X*X*X*X*X*X*X*X*X*X*X*X*X*X*X*X*X*X*X*X",
"*X*X*X*X*X*X*X*X*X*X*X*X*X*X*X*X*X*X*X*X*X*X*X*X*X*X*X*X*X*X*X*X*X*X*X*X*X*X*X*X*X*X*X*X*X*X*X*X*X*X",
"*X*X*X*X*X*X*X*X*X*X*X*X*X*X*X*X*X*X*X*X*X*X*X*X*X*X*X*X*X*X*X*X*X*X*X*X*X*X*X*X*X*X*X*X*X*X*X*X*X*X"
};
