/* XPM */
static char *result[] = {
/* columns rows colors chars-per-pixel */
"50 50 196 2 ",
"   c #010101",
".  c #020D01",
"X  c #080807",
"o  c #0A0A0B",
"O  c #060609",
"+  c #160F00",
"@  c #001203",
"#  c #0F1002",
"$  c #00140B",
"%  c #0B1509",
"&  c #151503",
"*  c #15160A",
"=  c #17190E",
"-  c #1C130D",
";  c #0B0C15",
":  c #001514",
">  c #0F1812",
",  c #00161B",
"<  c #031819",
"1  c #0B1919",
"2  c #0A1614",
"3  c #141413",
"4  c #181612",
"5  c #121814",
"6  c #191915",
"7  c #151A1A",
"8  c #1B1B1B",
"9  c #1B1719",
"0  c #281100",
"q  c #3C1400",
"w  c #221B1D",
"e  c #241719",
"r  c #3C1E1E",
"t  c #341B19",
"y  c #040527",
"u  c #011C26",
"i  c #061F29",
"p  c #1D1D23",
"a  c #1E1C29",
"s  c #171629",
"d  c #190A31",
"f  c #1D1D31",
"g  c #231C24",
"h  c #2B1B25",
"j  c #211E2D",
"k  c #2E1C28",
"l  c #331D2C",
"z  c #3B1E2B",
"x  c #211F31",
"c  c #002233",
"v  c #142436",
"b  c #1E2435",
"n  c #2C2125",
"m  c #22212B",
"M  c #2D2129",
"N  c #252528",
"B  c #3A2020",
"V  c #34232B",
"C  c #232335",
"Z  c #26253A",
"A  c #28273B",
"S  c #2A293D",
"D  c #2A2435",
"F  c #3B2333",
"G  c #3D2932",
"H  c #3E2538",
"J  c #372032",
"K  c #4A0500",
"L  c #451600",
"P  c #4B1E1D",
"I  c #531F1B",
"U  c #6D1C0A",
"Y  c #452C1B",
"T  c #54201F",
"R  c #53311E",
"E  c #49351E",
"W  c #672019",
"Q  c #74231E",
"!  c #421F23",
"~  c #442121",
"^  c #4F2121",
"/  c #552222",
"(  c #5A2221",
")  c #432A36",
"_  c #43263A",
"`  c #46293C",
"'  c #4A2C3D",
"]  c #4F313D",
"[  c #51313F",
"{  c #652423",
"}  c #692524",
"|  c #6D2728",
" . c #722727",
".. c #732828",
"X. c #7D292A",
"o. c #7C2725",
"O. c #632830",
"+. c #44443E",
"@. c #122C45",
"#. c #2B2A42",
"$. c #2F2E4A",
"%. c #282744",
"&. c #302F4C",
"*. c #332945",
"=. c #2F314B",
"-. c #32314B",
";. c #2A395B",
":. c #223B5D",
">. c #353453",
",. c #383655",
"<. c #383758",
"1. c #363A59",
"2. c #3B3A5C",
"3. c #343857",
"4. c #3E3D62",
"5. c #4E2D41",
"6. c #472B4F",
"7. c #522F43",
"8. c #543143",
"9. c #593545",
"0. c #5E364B",
"q. c #633A4D",
"w. c #60374C",
"e. c #673B51",
"r. c #6A3D52",
"t. c #6A3C5B",
"y. c #403F65",
"u. c #374168",
"i. c #454545",
"p. c #5A5A56",
"a. c #724258",
"s. c #724257",
"d. c #414067",
"f. c #44436B",
"g. c #464570",
"h. c #484772",
"j. c #4D4C7A",
"k. c #474A75",
"l. c #514F7F",
"z. c #50507F",
"x. c #646464",
"c. c #797978",
"v. c #AB021F",
"b. c #AB1521",
"n. c #BE1D22",
"m. c #832927",
"M. c #8A2A27",
"N. c #832A29",
"B. c #8A2B29",
"V. c #962E2E",
"C. c #9B2F2F",
"Z. c #9E302F",
"A. c #9C2F30",
"S. c #9D3132",
"D. c #AE2723",
"F. c #B92D27",
"G. c #A8302F",
"H. c #B63929",
"J. c #A43131",
"K. c #AC3233",
"L. c #B43434",
"P. c #BB3636",
"I. c #BE3738",
"U. c #C7261A",
"Y. c #C92D21",
"T. c #C53838",
"R. c #CA3939",
"E. c #C33737",
"W. c #D33B3B",
"Q. c #BD4C2F",
"!. c #DD492E",
"~. c #DF5F39",
"^. c #C75030",
"/. c #E9492B",
"(. c #C96839",
"). c #D76636",
"_. c #C47732",
"`. c #E8713F",
"'. c #DA6E40",
"]. c #D97743",
"[. c #E07D44",
"{. c #C6882F",
"}. c #E79836",
"|. c #E69127",
" X c #E58B42",
".X c #E78A47",
"XX c #E39B45",
"oX c #E8A147",
"OX c #545284",
"+X c #949494",
"@X c #9B9B9B",
"#X c #898989",
"$X c #A6A6A6",
"%X c #CECECE",
"&X c gray83",
"*X c None",
/* pixels */
"*X*X*X*X*X*X*X*X*X*X*X*X*X*X*X*X*X*X*X*X*X*X*X*X*X*X*X*X*X*X*X*X*X*X*X*X*X*X*X*X*X*X*X*X*X*X*X*X*X*X",
"*X*X*X*X*X*X*X*X*X*X*X*X*X*X*X*X*X*X*X*X*X*X*X*X*X*X*X*X*X*X*X*X*X*X*X*X*X*X*X*X*X*X*X*X*X*X*X*X*X*X",
"*X*X*X*X*X*X*X*X*X*X*X*X*X*X*X*X*X*X*X*X*X*X*X*X*X*X*X*X*X*X*X*X*X*X*X*X*X*X*X*X*X*X*X*X*X*X*X*X*X*X",
"*X*X*X*X*X*X*X*X*X*X*X*X*X*X*X*X*X*X*X*X*X*X*X*X*X*X*X*X8 8 8 8 8 6 8 8 8 *X*X*X*X*X*X*X*X*X*X*X*X*X",
"*X*X*X*X*X*X*X*X*X*X*X*X*X*X*X*X*X*X*X*X*X*X*X*X*X*X*X*X8 p p p p p p p p 8 *X*X*X*X*X*X*X*X*X*X*X*X",
"*X*X*X*X*X*X*X*X*X*X*X*X*X*X*X*X*X*X*X8 8 8 8 *X*X8 8 8 g a p j a p a a a p 8 8 8 8 *X*X*X*X*X*X*X*X",
"*X*X*X*X*X@ . @ > 5 5 > > > > > > @ N H J h k w 8 p p a A A p p p p p p g 8 *X*X*X*X*X*X*X*X*X*X*X*X",
"*X*X*X*XV ) ' G M g n M M M M k M M F _ G l k g p a x C S C 6 4 8 6 6 8 8 *X*X*X*X*X*X*X*X*X*X*X*X*X",
"*X*X*X@ ) s.s.q.` H _ _ _ _ _ _ _ _ 5._ J h 8 8 a %.#.#.m 6 *X*X*X*X*X*X*X*X*X*X*X*X*X*X*X*X*X*X*X*X",
"*X*X*X5 G [ ] 9.q.r.q._ H _ ` 5.5.H J F z k 8 8 C 2.,.m 8 *X*X*X*X*X*X*X*X*X*X*X*X*X*X*X*X*X*X*X*X*X",
"*X*X*X8 5 $   G q.r.q.8.5.5._ _ H l h g h a 7 2 b 1.=.% *X*X*X*X*X*X*X*X*X*X*X*X*X*X*X*X*X*X*X*X*X*X",
"*X*X*X*X*X*X*X*XV M ) e.s.r.5.J l l h < , , < < < i u < 1 1 *X*X*X*X*X*X*X*X*X*X*X*X*X*X*X*X*X*X*X*X",
"*X*X*X*X*X*X*X*X*X*Xg [ 9.9.w.7.h s P ( { { { { { W W { ../ : *X: *X*X*X*X*X: 2 *X*X*X*X*X*X*X*X*X*X",
"*X*X*X*X*X*X*X*X*X*X*X> . n q.0.k , ( V.S.V.C.V.V.S.V.V.C.X.B t r z r r r r r g 7 *X*X*X*X*X*X*X*X*X",
"*X*X*X*X*X*X*X*X*X*X*X*X*X*XV G l , { K.L.K.K.K.K.K.K.K.K.V.X.X.N.N.N.X.N.N.X.Y < *X*X*X*X*X*X*X*X*X",
"*X*X*X*X*X*X*X*X*X*X*X*X*X*X*X6 h , I M.B.M.B.M.M.B.m.V.L.T.L.J.S.J.J.J.J.K.C./ : *X*X*X*X*X*X*X*X*X",
"*X*X*X*X*X*X*X*X*X*X*X*X*X*X*X*X8 p 7 8 8 8 7 8 7 8 , ! L.W.R.P.K.G.K.K.K.K.S./ : *X*X*X*X*X*X*X*X*X",
"*X*X*X*X*X*X*X*X*X*X*X*X*X*X& N C C b v v v v v v v v D | Q o.E.E. .( } } } { B < *X*X*X*X*X*X*X*X*X",
"*X*X*X*X*X*X*X*X*X*X*X*X*X*Xp #.>.>.>.,.,.,.>.>.,.&.,.&.c , u C.G.e $ < : : : 1 *X*X*X*X*X*X*X*X*X*X",
"*X*X*X*X*X*X*X*X*X*X*X*X*Xp A >.4.4.4.4.4.4.4.4.y.4.y.2.$.S #.l t *X*X*X*X*X*X*X*X*X*X*X*X*X*X*X*X*X",
"*X*X*X*X*X*X*X*X*X*X*X*X*Xp S ,.4.$.A Z y     y $.4.g.4.2.2.2.@.u 7 *X*X*X*X*X*X*X*X*X*X*X*X*X*X*X*X",
"*X*X*X*X*X*X*X*X*X*X*X*X6 8 A ,.4.f   & p.c.c.i.  %.>.2.4.y.4.<.$.p * *X*X*X*X*X*X*X*X*X*X*X*X*X*X*X",
"*X*X*XU.Y.F.F.F.*X*X8 8 4 p Z <.4.Z   N $X&X%X#X      s 2.y.4.4.,.j 4 8 8 6 8 8 8 *X*X*X*X*X*X*X*X*X",
"*X*XH.).[.'..X_.R y G M e p Z ,.4.x   p c.@X@X@X$X$Xc.  f >.4.y.,.j m C C C C D m & & * * *X*X*X*X*X",
"*Xb.^.[..X XXX{.E d ` z g 8 Z ,.4.f   X       +X&X%X+X3   C 4.f.3.a A $.$.$.$.&.S p p N m *X*X*X*X*X",
"H.D.H.]. X|.|.{.Y d _ l e p Z <.4.C   X O 3   i.x.x.i.X   C 4.y.,.a $.4.2.<.2.2.,.#.#.#.S m 4 8 *X*X",
"H.n.!. XXX}.}._.Y *.0.J 9 p C ,.4.b   O o o o         X   Z 4.f.,.a 4.j.j.k.k.j.u.D C S A m 6 8 *X*X",
"*X*X/. XoXXXoX(.Y 6.t.F 4 p Z ,.4.x   O o X O o 3 3 ; O o %.4.y.,.a 4.OXOXOXOXOXf.4 & 8 6 *X*X*X*X*X",
"*X*X*X^.).~.~.Q.*XC ) h 3 8 A ,.4.Z   O o o o o O     ; $.4.4.4.>.a S -.-.-.-.>.S *X*X*X*X*X*X*X*X*X",
"*X*X*X*Xv.v.v.*X*X*X@ 5 6 p A <.4.f             ; b Z %.2.4.4.g.f.C X           *X*X*X*X*X*X*X*X*X*X",
"*X*X*X*X*X*X*X*X*X*X*X*X* p A ,.4.C O ; ; ; ; O s 2.4.4.4.4.4.OXj.m *X*X*X*X*X*X*X*X*X*X*X*X*X*X*X*X",
"*X*X*X*X*X*X*X*X*X*X*X*X= p S >.2.>.$.$.&.&.&.$.>.2.4.4.k.OXOX4.@.*X*X*X*X*X*X*X*X*X*X*X*X*X*X*X*X*X",
"*X*X*X*X*X*X*X*X*X*X*X*X*Xp C 1.h.h.h.h.h.h.g.g.h.g.g.g.h.k.k.5.K *X*X*X*X*X*X*X*X*X*X*X*X*X*X*X*X*X",
"*X*X*X*X*X*X*X*X*X*X*X*X*X*X# 2.OXOXOXOXOXOXOXOXOXOXOXOX$., m X.N.t 7 8 8 e 8 8 8 *X*X*X*X*X*X*X*X*X",
"*X*X*X*X*X*X*X*X*X*X*X*X*X*X*X=.2.2.<.;.;.;.;.;.;.;.:.3.O.U W B.B...|  . ...| B < *X*X*X*X*X*X*X*X*X",
"*X*X*X*X*X*X*X*X*X*X*X*X*X*X*X*X+ . 0 q L q q q q q 0 L B.J.C.V.S.C.A.C.V.J.V.^ : *X*X*X*X*X*X*X*X*X",
"*X*X*X*X*X*X*X*X*X*X*X*X*X*X$ w h , I m.B.N.m.m.m.m.o.m.J.K.L.K.K.K.K.L.K.L.K./ : *X*X*X*X*X*X*X*X*X",
"*X*X*X*X*X*X*X*X*X*X*X*X*X8 ] 8.l , { G.K.K.P.I.I.I.P.E.R.L.N.N.B.N.N.B.N.B.X.~ < *X*X*X*X*X*X*X*X*X",
"*X*X*X*X*X*X*X*X*X*X*XV M G e.0.h , { J.J.K.E.R.T.E.T.R.R.G.9 : 1 < < < < 1 < 7 8 *X*X*X*X*X*X*X*X*X",
"*X*X*X*X*X*X*X*X$ . M q.r.q.9.) h g z / I T { } } } { } ..( *X*X*X*X*X*X*X*X*X*X*X*X*X*X*X*X*X*X*X*X",
"*X*X*X*X*X*X*XN ' [ 8.0.r.0.5.J F z a , , , : : : , : : : *X*X*X*X*X*X*X*X*X*X*X*X*X*X*X*X*X*X*X*X*X",
"*X*X*X*X*XN w ) s.a.e._ H ` H 5._ J l l l k 8 p j j g 8 *X*X*X*X*X*X*X*X*X*X*X*X*X*X*X*X*X*X*X*X*X*X",
"*X*X*X@ ) q.s.9.9.8.8.5.H ` 5.` _ _ _ _ J h 4 =.2.#.j a 8 *X*X*X*X*X*X*X*X*X*X*X*X*X*X*X*X*X*X*X*X*X",
"*X*X*X2 ' q.s.9.J l J H H F H J G H _ _ F k e *.2.,.#.j p 8 *X*X*X*X*X*X*X*X*X*X*X*X*X*X*X*X*X*X*X*X",
"*X*X*X8 p w w w 8 8 w p p 8 8 p 8 7 V ` z k l e C y.<.S m p 8 8 8 8 8 8 8 *X*X*X*X*X*X*X*X*X*X*X*X*X",
"*X*X*X*X*X*X*X*X*X*X*X*X*X*X*X*X*X*Xg M M N h - *XS <.2.$.C a p p a p a p p 8 8 8 8 *X*X*X*X*X*X*X*X",
"*X*X*X*X*X*X*X*X*X*X*X*X*X*X*X*X*X*X*X5 5 7 8 *X*XX S d.-.C a a a p j p a p 8 8 8 8 *X*X*X*X*X*X*X*X",
"*X*X*X*X*X*X*X*X*X*X*X*X*X*X*X*X*X*X*X*X*X*X*X*X*X*X8 N p 8 8 8 8 p 8 8 8 8 *X*X*X*X*X*X*X*X*X*X*X*X",
"*X*X*X*X*X*X*X*X*X*X*X*X*X*X*X*X*X*X*X*X*X*X*X*X*X*X*X*X*X*X*X*X*X*X*X*X*X*X*X*X*X*X*X*X*X*X*X*X*X*X",
"*X*X*X*X*X*X*X*X*X*X*X*X*X*X*X*X*X*X*X*X*X*X*X*X*X*X*X*X*X*X*X*X*X*X*X*X*X*X*X*X*X*X*X*X*X*X*X*X*X*X"
};
