/* XPM */
static char *result[] = {
/* columns rows colors chars-per-pixel */
"50 50 196 2 ",
"   c #010101",
".  c #020D01",
"X  c #080807",
"o  c #0A0A0B",
"O  c #060609",
"+  c #160F00",
"@  c #001203",
"#  c #0F1002",
"$  c #00140B",
"%  c #0B1509",
"&  c #151503",
"*  c #15160A",
"=  c #17190E",
"-  c #1C130D",
";  c #0B0C15",
":  c #001514",
">  c #0F1812",
",  c #00161B",
"<  c #031819",
"1  c #0B1919",
"2  c #0A1614",
"3  c #141413",
"4  c #181612",
"5  c #121814",
"6  c #191915",
"7  c #151A1A",
"8  c #1B1B1B",
"9  c #1B1719",
"0  c #281100",
"q  c #3C1400",
"w  c #221B1D",
"e  c #241719",
"r  c #3C1E1E",
"t  c #341B19",
"y  c #040527",
"u  c #011C26",
"i  c #061F29",
"p  c #1D1D23",
"a  c #1E1C29",
"s  c #171629",
"d  c #190A31",
"f  c #1D1D31",
"g  c #231C24",
"h  c #2B1B25",
"j  c #211E2D",
"k  c #2E1C28",
"l  c #331D2C",
"z  c #3B1E2B",
"x  c #211F31",
"c  c #002233",
"v  c #142436",
"b  c #1E2435",
"n  c #2C2125",
"m  c #22212B",
"M  c #2D2129",
"N  c #252528",
"B  c #3A2020",
"V  c #34232B",
"C  c #232335",
"Z  c #26253A",
"A  c #28273B",
"S  c #2A293D",
"D  c #2A2435",
"F  c #3B2333",
"G  c #3D2932",
"H  c #3E2538",
"J  c #372032",
"K  c #4A0500",
"L  c #451600",
"P  c #4B1E1D",
"I  c #531F1B",
"U  c #6D1C0A",
"Y  c #452C1B",
"T  c #54201F",
"R  c #53311E",
"E  c #49351E",
"W  c #672019",
"Q  c #74231E",
"!  c #421F23",
"~  c #442121",
"^  c #4F2121",
"/  c #552222",
"(  c #5A2221",
")  c #432A36",
"_  c #43263A",
"`  c #46293C",
"'  c #4A2C3D",
"]  c #4F313D",
"[  c #51313F",
"{  c #652423",
"}  c #692524",
"|  c #6D2728",
" . c #722727",
".. c #732828",
"X. c #7D292A",
"o. c #7C2725",
"O. c #632830",
"+. c #44443E",
"@. c #122C45",
"#. c #2B2A42",
"$. c #2F2E4A",
"%. c #282744",
"&. c #302F4C",
"*. c #332945",
"=. c #2F314B",
"-. c #32314B",
";. c #2A395B",
":. c #223B5D",
">. c #353453",
",. c #383655",
"<. c #383758",
"1. c #363A59",
"2. c #3B3A5C",
"3. c #343857",
"4. c #3E3D62",
"5. c #4E2D41",
"6. c #472B4F",
"7. c #522F43",
"8. c #543143",
"9. c #593545",
"0. c #5E364B",
"q. c #633A4D",
"w. c #60374C",
"e. c #673B51",
"r. c #6A3D52",
"t. c #6A3C5B",
"y. c #403F65",
"u. c #374168",
"i. c #454545",
"p. c #5A5A56",
"a. c #724258",
"s. c #724257",
"d. c #414067",
"f. c #44436B",
"g. c #464570",
"h. c #484772",
"j. c #4D4C7A",
"k. c #474A75",
"l. c #514F7F",
"z. c #50507F",
"x. c #646464",
"c. c #797978",
"v. c #AB021F",
"b. c #AB1521",
"n. c #BE1D22",
"m. c #832927",
"M. c #8A2A27",
"N. c #832A29",
"B. c #8A2B29",
"V. c #962E2E",
"C. c #9B2F2F",
"Z. c #9E302F",
"A. c #9C2F30",
"S. c #9D3132",
"D. c #AE2723",
"F. c #B92D27",
"G. c #A8302F",
"H. c #B63929",
"J. c #A43131",
"K. c #AC3233",
"L. c #B43434",
"P. c #BB3636",
"I. c #BE3738",
"U. c #C7261A",
"Y. c #C92D21",
"T. c #C53838",
"R. c #CA3939",
"E. c #C33737",
"W. c #D33B3B",
"Q. c #BD4C2F",
"!. c #DD492E",
"~. c #DF5F39",
"^. c #C75030",
"/. c #E9492B",
"(. c #C96839",
"). c #D76636",
"_. c #C47732",
"`. c #E8713F",
"'. c #DA6E40",
"]. c #D97743",
"[. c #E07D44",
"{. c #C6882F",
"}. c #E79836",
"|. c #E69127",
" X c #E58B42",
".X c #E78A47",
"XX c #E39B45",
"oX c #E8A147",
"OX c #545284",
"+X c #949494",
"@X c #9B9B9B",
"#X c #898989",
"$X c #A6A6A6",
"%X c #CECECE",
"&X c gray83",
"*X c None",
/* pixels */
"*X*X*X*X*X*X*X*X*X*X*X*X*X*X*X*X*X*X*X*X*X*X*XH.H.*X*X*X*X*X*X*X*X*X*X*X*X*X*X*X*X*X*X*X*X*X*X*X*X*X",
"*X*X*X*X*X*X*X*X*X*X*X*X*X*X*X*X*X*X*X*X*X*X*Xn.D.b.*X*X*X*X*X*X*X*X*X*X*X*X*X*X*X*X*X*X*X*X*X*X*X*X",
"*X*X*X*X*X*X*X*X*X*X*X*X*X*X*X*X*X*X*X*X*X*X/.!.H.^.H.*X*X*X*X*X*X*X*X*X*X*X*X*X*X*X*X*X*X*X*X*X*X*X",
"*X*X*X*X*X7 2 @ *X*X*X*X*X*X*X*X*X*X*X*X*X(. X X]. X~.n.*X*X*X*X*X*X*X*X*X*X*X8 5 @ *X*X*X*X*X*X*X*X",
"*X*X*X*X*X8 ' ) *X*X*X*X*X*X*X*X*X*X*X*Xv.).oXXX X.X'.Y.*X*X*X*X*X*X*X*X*X*X*X5 G ' V *X*X*X*X*X*X*X",
"*X*X*X*X*Xw q.q.n *X*X*X*X*X*X*X*X*X*X*Xv.).oX}.|..X'.F.*X*X*X*X*X*X*X*X*X*X*X$ ] s.) . *X*X*X*X*X*X",
"*X*X*X*X*Xw s.q.w *X*X*X*X*X*X*X*X*X*X*Xv.~..X}.|.oX.XF.*X*X*X*X*X*X*X*X*X*X*X. ] a.' @ *X*X*X*X*X*X",
"*X*X*X*X*Xw 9.w.) n *X*X*X*X*X*X*X*X*X*X*XQ.(._.{.{._.F.*X*X*X*X*X*X*X*X*X*X*XV 9.q.G @ *X*X*X*X*X*X",
"*X*X*X*X*X8 H 8.t.] $ *X*X*X*X*X*X*X*X*X*X*XY Y Y E R *X*X*X*X*X*X*X*X*X*X*XV q.e._ M > *X*X*X*X*X*X",
"*X*X*X*X*X8 V 9.a.8.. *X*X*X*X*X*X*X*X*X*Xx 6.*.d d s *X*X*X*X*X*X*X*X*X*X*Xn r.e.G N 5 *X*X*X*X*X*X",
"*X*X*X*X*X8 F 8.q.8.n *X*X*X*X*X*X*X*X*X@ ` t.0.) ` F 8 *X*X*X*X*X*X*X*X*Xw ) q.0._ h 5 *X*X*X*X*X*X",
"*X*X*X*X*Xp F ` ' w.w.V *X*X*X*X*X*X*X*X5 h F F z z k 8 *X*X*X*X*X*X*X*X> 8.e.7.5._ n 5 *X*X*X*X*X*X",
"*X*X*X*X*X8 H _ _ e.r.M *X*X*X*X*X*X= = 4 6 4 9 w w 8 5 4 *X*X*X*X*X*X*X@ 9.t.5.H _ k > *X*X*X*X*X*X",
"*X*X*X*X*X8 H ` ` 0.q.G 8 *X*X*X*X8 p p p 8 8 p p 8 8 p p p p *X*X*X*X*Xn 9.e.5.H _ M > *X*X*X*X*X*X",
"*X*X*X*X*X8 G ` ` 5.8.e.[ $ *X*X# C S S A Z Z A A D A Z A S S p & *X*XV q.q.5._ 5._ M > *X*X*X*X*X*X",
"*X*X*X*X*Xw H 5.` F H 0.[ w *X-.2.,.>.,.,.<.<.,.,.<.,.,.,.,.,.#.p *X6 G w.7.J H 5._ M > *X*X*X*X*X*X",
"*X*X*X*X*X8 F 5._ J k h l h + 2.OXh.2.4.4.4.4.4.4.4.4.2.4.4.4.>.Z p g l k h l _ _ _ M > *X*X*X*X*X*X",
"*X*X*X*X*X7 F _ J l h : , , . 4.OXk.>.C f C f C C f Z Z f $.4.>.Z 8 : , : s l J _ _ M @ *X*X*X*X*X*X",
"*X*X*X*Xg M _ _ l g z { { P 0 1.OXh.=.O                   Z 4.>.b 7 T } T ~ h h F ` F g *X*X*X*X*X*X",
"*X*X*X5 V ` _ H l , I J.K.m.q ;.OXh.$.;   X O o O O 8 N o Z 4.>.v p m.K.V.{ , g F ` ` G p *X*X*X*X*X",
"*X*X*X7 n F F z l u I G.K.N.L ;.OXh.&.;   o O o O   c.$Xp.y 2.>.v 8 M.L.V.} < h J J F l w *X*X*X*X*X",
"*X*X*X7 h h h h h , ( G.K.N.q ;.OXh.=.;   o O * 3   @X&Xc.  y.,.v 8 M.K.V.{ , g k h h h 8 *X*X*X*X*X",
"*X*X*X6 h l e 4 9 : { E.P.N.q ;.OXh.$.;   o O o     @X%Xc.  2.,.v 7 B.K.V.} < 7 9 8 k k 8 *X*X*X*X*X",
"*X*X*X*X- e &.&.g : { R.I.N.q ;.OXh.$.O   o o   i.+X@X#X+.y 4.,.v 8 B.K.V.{ < 1 9 8 h g *X*X*X*X*X*X",
"*X*X*X*X*XN 2.y.x : } T.I.m.q ;.OXh.>.s o O 3   x.%X$X    &.4.,.v 8 M.K.S.{ < b D j p 7 *X*X*X*X*X*X",
"*X*X*X. S d.,.S j : } E.I.m.q 3.OXg.4.2.C   3   x.%X$X  %.d.4.>.v 8 M.K.V.W i 1.<.%.a p 8 *X*X*X*X*X",
"*X*Xp #.2.2.#.j p , { T.I.o.0 :.OXf.4.4.Z   o   i.+Xc.  >.f.4.>.v , m.K.V.W u =.,.#.C 8 8 *X*X*X*X*X",
"*X*Xm 2.2.A j p e : } R.I.m.L ,.OXg.4.4.%.o O O O 3   s <.y.2.-.D P V.K.V.} < % C #.Z p 8 *X*X*X*X*X",
"*X*Xp $.$.j p 8 *X:  .R.R.S.B.O.$.k.k.4.4.$.O       f 2.4.2.$.c } L.L.K.C. .1 *X6 m A Z a 8 8 *X*X*X",
"*X*Xp D x p 6 *X*X*X( J.L.K.J.U : k.OX4.4.4.%.C Z C >.y.y.2.A u Q W.T.V.X./ 1 *X*X6 Z Z a g 8 *X*X*X",
"*X*X8 a j 8 *X*X*X*X*X8 N.L.S.W D u.OX4.4.4.4.4.4.4.4.y.y.<.%.u o.R.L.X.r : *X*X*X*X6 p a p 8 *X*X*X",
"*X*X8 a p 8 *X*X*X*X*X: N.K.V.B.X.5.4.OXh.4.f.y.f.4.y.4.,.@.J A.I.P.J.X.t *X*X*X*X*X6 p a p 6 *X*X*X",
"*X*X8 a p 8 *X*X*X*X*X1 B.K.V.B.X.K @.k.f.-.,.>.,.,.1.,.#.u t G.E.K.C.N.Y : *X*X*X*X6 p a p 6 *X*X*X",
"*X*X8 p a 8 *X*X*X*X*X< B.K.S...t *X*XC C m a a a j f a m 6 *Xe ..K.J.N.r *X*X*X*X*X6 p a p 8 *X*X*X",
"*X*X8 a a 8 *X*X*X*X*X1 B.K.S.| 7 *X*X*X  S d.2.$.Z j 6 * *X*X: ( K.J.N.r *X*X*X*X*X6 p a p 8 *X*X*X",
"*X*X8 a p 8 *X*X*X*X*X< B.K.S.| 8 *X*X*X  -.OXl.2.=.Z 6 *X*X*X: } K.J.X.r *X*X*X*X*X8 p a p 8 *X*X*X",
"*X*Xp a a 8 *X*X*X*X*X1 N.K.S. .8 *X*X*X  -.z.j.2.$.C 8 *X*X*X< } J.J.X.r *X*X*X*X*X6 p a p 8 *X*X*X",
"*X*X8 p p *X*X*X*X*X*X< N.L.J. .w *X*X*X  -.z.j.2.$.Z 6 *X*X*X: | K.K.N.r *X*X*X*X*X*Xp p 8 *X*X*X*X",
"*X*X*X6 6 *X*X*X*X*X*X< N.J.V.| 8 *X*X*X  -.OXj.2.$.D 8 *X*X*X: { J.C.X.B : *X*X*X*X*X*X6 *X*X*X*X*X",
"*X*X*X8 8 *X*X*X*X*X*X7 ~ / ^ B p *X*X*X  >.OXj.2.$.C 6 *X*X*X1 B / / ~ w 1 *X*X*X*X*X*X8 *X*X*X*X*X",
"*X*X*X8 6 *X*X*X*X*X*X8 < : : < 8 *X*X*X*X#.d.d.>.S m 8 *X*X*X*X< : : < 7 *X*X*X*X*X*X*X8 *X*X*X*X*X",
"*X*X*X8 8 *X*X*X*X*X*X*X*X*X*X*X*X*X*X*X*X*X4 Z #.p & *X*X*X*X*X*X*X*X*X*X*X*X*X*X*X*X*X6 *X*X*X*X*X",
"*X*X*X*X*X*X*X*X*X*X*X*X*X*X*X*X*X*X*X*X*X*X& Z #.p & *X*X*X*X*X*X*X*X*X*X*X*X*X*X*X*X*X*X*X*X*X*X*X",
"*X*X*X*X*X*X*X*X*X*X*X*X*X*X*X*X*X*X*X*X*X*X8 S #.m * *X*X*X*X*X*X*X*X*X*X*X*X*X*X*X*X*X*X*X*X*X*X*X",
"*X*X*X*X*X*X*X*X*X*X*X*X*X*X*X*X*X*X*X*X*X*X6 Z #.N * *X*X*X*X*X*X*X*X*X*X*X*X*X*X*X*X*X*X*X*X*X*X*X",
"*X*X*X*X*X*X*X*X*X*X*X*X*X*X*X*X*X*X*X*X*X*X*Xm m *X*X*X*X*X*X*X*X*X*X*X*X*X*X*X*X*X*X*X*X*X*X*X*X*X",
"*X*X*X*X*X*X*X*X*X*X*X*X*X*X*X*X*X*X*X*X*X*X*X6 6 *X*X*X*X*X*X*X*X*X*X*X*X*X*X*X*X*X*X*X*X*X*X*X*X*X",
"*X*X*X*X*X*X*X*X*X*X*X*X*X*X*X*X*X*X*X*X*X*X*X6 6 *X*X*X*X*X*X*X*X*X*X*X*X*X*X*X*X*X*X*X*X*X*X*X*X*X",
"*X*X*X*X*X*X*X*X*X*X*X*X*X*X*X*X*X*X*X*X*X*X*X*X*X*X*X*X*X*X*X*X*X*X*X*X*X*X*X*X*X*X*X*X*X*X*X*X*X*X",
"*X*X*X*X*X*X*X*X*X*X*X*X*X*X*X*X*X*X*X*X*X*X*X*X*X*X*X*X*X*X*X*X*X*X*X*X*X*X*X*X*X*X*X*X*X*X*X*X*X*X"
};
